<svg xmlns="http://www.w3.org/2000/svg" width="120" height="103" viewBox="0 0 120 103" fill="none">
<path d="M38.671 2.82837L8.60689 19.2471L6.32579 22.0502L4.84632 26.7761L6.7223 31.3923C7.56142 32.3133 9.24066 34.1788 9.24462 34.2722C9.24859 34.3656 29.3001 23.6248 39.3253 18.2427L38.671 2.82837Z" fill="#296FE1"/>
<path d="M38.671 2.82837L8.60689 19.2471L6.32579 22.0502L4.84632 26.7761L6.7223 31.3923C7.56142 32.3133 9.24066 34.1788 9.24462 34.2722C9.24859 34.3656 29.3001 23.6248 39.3253 18.2427L38.671 2.82837Z" fill="url(#paint0_linear_710_149)"/>
<path d="M9.67876 38.7751L39.6966 51.0188L40.1219 37.5623L9.04073 23.7429C7.1403 23.1133 7.54921 22.0881 9.37145 19.0278C-3.72612 26.7054 1.50777 34.4254 9.67876 38.7751Z" fill="#296FE1"/>
<path d="M9.67876 38.7751L39.6966 51.0188L40.1219 37.5623L9.04073 23.7429C7.1403 23.1133 7.54921 22.0881 9.37145 19.0278C-3.72612 26.7054 1.50777 34.4254 9.67876 38.7751Z" fill="url(#paint1_linear_710_149)"/>
<path d="M47.5991 60V47.7486L60.4234 43.0578C60.4234 43.0578 60.7247 46.5897 60.4234 52.9913C60.1222 59.3929 47.5991 60 47.5991 60Z" fill="#296FE1"/>
<path d="M47.5991 60V47.7486L60.4234 43.0578C60.4234 43.0578 60.7247 46.5897 60.4234 52.9913C60.1222 59.3929 47.5991 60 47.5991 60Z" fill="url(#paint2_linear_710_149)"/>
<path d="M47.5943 52.1379L76.6208 38.8045L78.7122 35.8748L80.0005 31.0107L78.1182 26.3648C77.3031 25.4526 75.6713 23.6043 75.6654 23.5092C75.6594 23.4141 56.9488 33.0004 47.5943 38.8045L47.5943 52.1379Z" fill="#296FE1"/>
<path d="M47.5943 52.1379L76.6208 38.8045L78.7122 35.8748L80.0005 31.0107L78.1182 26.3648C77.3031 25.4526 75.6713 23.6043 75.6654 23.5092C75.6594 23.4141 56.9488 33.0004 47.5943 38.8045L47.5943 52.1379Z" fill="url(#paint3_linear_710_149)"/>
<path d="M75.9825 18.0552L47.0778 2.40882L47.1239 17.9563L76.9693 33.8532C78.7307 34.461 78.3826 35.5514 76.7915 38.8236C88.6101 30.3693 83.5994 22.397 75.9825 18.0552Z" fill="#296FE1"/>
<path d="M75.9825 18.0552L47.0778 2.40882L47.1239 17.9563L76.9693 33.8532C78.7307 34.461 78.3826 35.5514 76.7915 38.8236C88.6101 30.3693 83.5994 22.397 75.9825 18.0552Z" fill="url(#paint4_linear_710_149)"/>
<path d="M83.1362 60V47.7486L95.9605 43.0578C95.9605 43.0578 96.2618 46.5897 95.9605 52.9913C95.6593 59.3929 83.1362 60 83.1362 60Z" fill="#296FE1"/>
<path d="M83.1362 60V47.7486L95.9605 43.0578C95.9605 43.0578 96.2618 46.5897 95.9605 52.9913C95.6593 59.3929 83.1362 60 83.1362 60Z" fill="url(#paint5_linear_710_149)"/>
<path d="M83.1314 52.1379L112.158 38.8045L114.249 35.8748L115.538 31.0107L113.655 26.3648C112.84 25.4526 111.208 23.6043 111.202 23.5092C111.197 23.4141 92.486 33.0004 83.1314 38.8045L83.1314 52.1379Z" fill="#296FE1"/>
<path d="M83.1314 52.1379L112.158 38.8045L114.249 35.8748L115.538 31.0107L113.655 26.3648C112.84 25.4526 111.208 23.6043 111.202 23.5092C111.197 23.4141 92.486 33.0004 83.1314 38.8045L83.1314 52.1379Z" fill="url(#paint6_linear_710_149)"/>
<path d="M111.52 18.0552L82.6149 2.40882L82.661 17.9563L112.506 33.8532C114.268 34.461 113.92 35.5514 112.329 38.8236C124.147 30.3693 119.137 22.397 111.52 18.0552Z" fill="#296FE1"/>
<path d="M111.52 18.0552L82.6149 2.40882L82.661 17.9563L112.506 33.8532C114.268 34.461 113.92 35.5514 112.329 38.8236C124.147 30.3693 119.137 22.397 111.52 18.0552Z" fill="url(#paint7_linear_710_149)"/>
<path d="M17.9432 75.1477H16.1705C16.1023 74.7689 15.9754 74.4356 15.7898 74.1477C15.6042 73.8598 15.3769 73.6155 15.108 73.4148C14.839 73.214 14.5379 73.0625 14.2045 72.9602C13.875 72.858 13.5246 72.8068 13.1534 72.8068C12.483 72.8068 11.8826 72.9754 11.3523 73.3125C10.8258 73.6496 10.4091 74.1439 10.1023 74.7955C9.79924 75.447 9.64773 76.2424 9.64773 77.1818C9.64773 78.1288 9.79924 78.928 10.1023 79.5795C10.4091 80.2311 10.8277 80.7235 11.358 81.0568C11.8883 81.3902 12.4848 81.5568 13.1477 81.5568C13.5152 81.5568 13.8636 81.5076 14.1932 81.4091C14.5265 81.3068 14.8277 81.1572 15.0966 80.9602C15.3655 80.7633 15.5928 80.5227 15.7784 80.2386C15.9678 79.9508 16.0985 79.6212 16.1705 79.25L17.9432 79.2557C17.8485 79.8277 17.6648 80.3542 17.392 80.8352C17.1231 81.3125 16.7765 81.7254 16.3523 82.0739C15.9318 82.4186 15.4508 82.6856 14.9091 82.875C14.3674 83.0644 13.7765 83.1591 13.1364 83.1591C12.1288 83.1591 11.2311 82.9205 10.4432 82.4432C9.6553 81.9621 9.03409 81.2746 8.57955 80.3807C8.12879 79.4867 7.90341 78.4205 7.90341 77.1818C7.90341 75.9394 8.13068 74.8731 8.58523 73.983C9.03977 73.089 9.66098 72.4034 10.4489 71.9261C11.2367 71.4451 12.1326 71.2045 13.1364 71.2045C13.7538 71.2045 14.3295 71.2936 14.8636 71.4716C15.4015 71.6458 15.8845 71.9034 16.3125 72.2443C16.7405 72.5814 17.0947 72.9943 17.375 73.483C17.6553 73.9678 17.8447 74.5227 17.9432 75.1477ZM29.607 71.3636H31.3684V79.017C31.3684 79.8314 31.1771 80.553 30.7945 81.1818C30.4119 81.8068 29.874 82.2992 29.1809 82.6591C28.4877 83.0152 27.6752 83.1932 26.7434 83.1932C25.8153 83.1932 25.0047 83.0152 24.3115 82.6591C23.6184 82.2992 23.0805 81.8068 22.6979 81.1818C22.3153 80.553 22.124 79.8314 22.124 79.017V71.3636H23.8797V78.875C23.8797 79.4015 23.9952 79.8693 24.2263 80.2784C24.4612 80.6875 24.7926 81.0095 25.2206 81.2443C25.6487 81.4754 26.1562 81.5909 26.7434 81.5909C27.3343 81.5909 27.8437 81.4754 28.2718 81.2443C28.7036 81.0095 29.0331 80.6875 29.2604 80.2784C29.4915 79.8693 29.607 79.4015 29.607 78.875V71.3636ZM42.3475 74.4205C42.2869 73.8826 42.0369 73.4659 41.5975 73.1705C41.1581 72.8712 40.6051 72.7216 39.9384 72.7216C39.4611 72.7216 39.0483 72.7973 38.6998 72.9489C38.3513 73.0966 38.0805 73.3011 37.8873 73.5625C37.6979 73.8201 37.6032 74.1136 37.6032 74.4432C37.6032 74.7197 37.6676 74.9583 37.7964 75.1591C37.9289 75.3598 38.1013 75.5284 38.3134 75.6648C38.5293 75.7973 38.7604 75.9091 39.0066 76C39.2528 76.0871 39.4895 76.1591 39.7168 76.2159L40.8532 76.5114C41.2244 76.6023 41.6051 76.7254 41.9952 76.8807C42.3854 77.036 42.7471 77.2405 43.0805 77.4943C43.4138 77.7481 43.6827 78.0625 43.8873 78.4375C44.0956 78.8125 44.1998 79.2614 44.1998 79.7841C44.1998 80.4432 44.0293 81.0284 43.6884 81.5398C43.3513 82.0511 42.8608 82.4545 42.2168 82.75C41.5767 83.0455 40.802 83.1932 39.893 83.1932C39.0217 83.1932 38.268 83.0549 37.6316 82.7784C36.9952 82.5019 36.4971 82.1098 36.1373 81.6023C35.7774 81.0909 35.5786 80.4848 35.5407 79.7841H37.302C37.3361 80.2045 37.4725 80.5549 37.7111 80.8352C37.9536 81.1117 38.2623 81.3182 38.6373 81.4545C39.0161 81.5871 39.4308 81.6534 39.8816 81.6534C40.3778 81.6534 40.8191 81.5758 41.2055 81.4205C41.5956 81.2614 41.9024 81.0417 42.1259 80.7614C42.3494 80.4773 42.4611 80.1458 42.4611 79.767C42.4611 79.4223 42.3627 79.1402 42.1657 78.9205C41.9725 78.7008 41.7092 78.5189 41.3759 78.375C41.0464 78.2311 40.6733 78.1042 40.2566 77.9943L38.8816 77.6193C37.9498 77.3655 37.2111 76.9924 36.6657 76.5C36.124 76.0076 35.8532 75.3561 35.8532 74.5455C35.8532 73.875 36.035 73.2898 36.3986 72.7898C36.7623 72.2898 37.2547 71.9015 37.8759 71.625C38.4971 71.3447 39.1979 71.2045 39.9782 71.2045C40.7661 71.2045 41.4611 71.3428 42.0634 71.6193C42.6695 71.8958 43.1467 72.2765 43.4952 72.7614C43.8437 73.2424 44.0255 73.7955 44.0407 74.4205H42.3475ZM47.8039 72.875V71.3636H56.8096V72.875H53.1789V83H51.4289V72.875H47.8039ZM70.4876 77.1818C70.4876 78.4242 70.2603 79.4924 69.8058 80.3864C69.3513 81.2765 68.7281 81.9621 67.9365 82.4432C67.1486 82.9205 66.2528 83.1591 65.249 83.1591C64.2414 83.1591 63.3418 82.9205 62.5501 82.4432C61.7622 81.9621 61.141 81.2746 60.6865 80.3807C60.2319 79.4867 60.0047 78.4205 60.0047 77.1818C60.0047 75.9394 60.2319 74.8731 60.6865 73.983C61.141 73.089 61.7622 72.4034 62.5501 71.9261C63.3418 71.4451 64.2414 71.2045 65.249 71.2045C66.2528 71.2045 67.1486 71.4451 67.9365 71.9261C68.7281 72.4034 69.3513 73.089 69.8058 73.983C70.2603 74.8731 70.4876 75.9394 70.4876 77.1818ZM68.749 77.1818C68.749 76.2348 68.5956 75.4375 68.2887 74.7898C67.9857 74.1383 67.5691 73.6458 67.0387 73.3125C66.5122 72.9754 65.9156 72.8068 65.249 72.8068C64.5785 72.8068 63.98 72.9754 63.4535 73.3125C62.927 73.6458 62.5103 74.1383 62.2035 74.7898C61.9005 75.4375 61.749 76.2348 61.749 77.1818C61.749 78.1288 61.9005 78.928 62.2035 79.5795C62.5103 80.2273 62.927 80.7197 63.4535 81.0568C63.98 81.3902 64.5785 81.5568 65.249 81.5568C65.9156 81.5568 66.5122 81.3902 67.0387 81.0568C67.5691 80.7197 67.9857 80.2273 68.2887 79.5795C68.5956 78.928 68.749 78.1288 68.749 77.1818ZM74.7565 71.3636H76.8872L80.5918 80.4091H80.7281L84.4327 71.3636H86.5634V83H84.8929V74.5795H84.7849L81.3531 82.983H79.9668L76.5349 74.5739H76.427V83H74.7565V71.3636ZM91.1959 83V71.3636H98.4914V72.875H92.9516V76.4205H98.1107V77.9261H92.9516V81.4886H98.5595V83H91.1959ZM102.917 83V71.3636H107.064C107.966 71.3636 108.714 71.5189 109.309 71.8295C109.907 72.1402 110.354 72.5701 110.649 73.1193C110.945 73.6648 111.093 74.2955 111.093 75.0114C111.093 75.7235 110.943 76.3504 110.644 76.892C110.348 77.4299 109.901 77.8485 109.303 78.1477C108.708 78.447 107.96 78.5966 107.059 78.5966H103.917V77.0852H106.899C107.468 77.0852 107.93 77.0038 108.286 76.8409C108.646 76.678 108.909 76.4413 109.076 76.1307C109.242 75.8201 109.326 75.447 109.326 75.0114C109.326 74.572 109.24 74.1913 109.07 73.8693C108.903 73.5473 108.64 73.3011 108.28 73.1307C107.924 72.9564 107.456 72.8693 106.877 72.8693H104.672V83H102.917ZM108.661 77.75L111.536 83H109.536L106.718 77.75H108.661Z" fill="black"/>
<path d="M10.7727 92V86.1818H12.6506C13.0634 86.1818 13.4081 86.2614 13.6847 86.4205C13.9631 86.5777 14.1723 86.7917 14.3125 87.0625C14.4545 87.3333 14.5256 87.6383 14.5256 87.9773C14.5256 88.3163 14.4555 88.6222 14.3153 88.8949C14.1752 89.1657 13.9669 89.3807 13.6903 89.5398C13.4138 89.697 13.0701 89.7756 12.6591 89.7756H11.1818V89.2983H12.6449C12.9498 89.2983 13.2027 89.2415 13.4034 89.1278C13.6042 89.0123 13.7538 88.8551 13.8523 88.6562C13.9527 88.4574 14.0028 88.2311 14.0028 87.9773C14.0028 87.7235 13.9527 87.4972 13.8523 87.2983C13.7538 87.0994 13.6032 86.9432 13.4006 86.8295C13.1998 86.7159 12.9451 86.6591 12.6364 86.6591H11.304V92H10.7727ZM15.1875 92H14.6307L16.7472 86.1818H17.3153L19.4318 92H18.875L17.0511 86.8722H17.0114L15.1875 92ZM15.5881 89.7699H18.4744V90.2472H15.5881V89.7699ZM20.9602 86.1818V92H20.429V86.1818H20.9602ZM27.0384 86.1818V92H26.5213L23.0838 87.1278H23.0384V92H22.5071V86.1818H23.0213L26.4702 91.0597H26.5156V86.1818H27.0384ZM30.8352 92V86.1818H32.7131C33.1259 86.1818 33.4706 86.2614 33.7472 86.4205C34.0256 86.5777 34.2348 86.7917 34.375 87.0625C34.517 87.3333 34.5881 87.6383 34.5881 87.9773C34.5881 88.3163 34.518 88.6222 34.3778 88.8949C34.2377 89.1657 34.0294 89.3807 33.7528 89.5398C33.4763 89.697 33.1326 89.7756 32.7216 89.7756H31.2443V89.2983H32.7074C33.0123 89.2983 33.2652 89.2415 33.4659 89.1278C33.6667 89.0123 33.8163 88.8551 33.9148 88.6562C34.0152 88.4574 34.0653 88.2311 34.0653 87.9773C34.0653 87.7235 34.0152 87.4972 33.9148 87.2983C33.8163 87.0994 33.6657 86.9432 33.4631 86.8295C33.2623 86.7159 33.0076 86.6591 32.6989 86.6591H31.3665V92H30.8352ZM40.6051 89.0909C40.6051 89.697 40.4972 90.2244 40.2812 90.6733C40.0653 91.1203 39.768 91.4669 39.3892 91.7131C39.0123 91.9574 38.5786 92.0795 38.0881 92.0795C37.5975 92.0795 37.1629 91.9574 36.7841 91.7131C36.4072 91.4669 36.1108 91.1203 35.8949 90.6733C35.6809 90.2244 35.5739 89.697 35.5739 89.0909C35.5739 88.4848 35.6809 87.9583 35.8949 87.5114C36.1108 87.0625 36.4081 86.7159 36.7869 86.4716C37.1657 86.2254 37.5994 86.1023 38.0881 86.1023C38.5786 86.1023 39.0123 86.2254 39.3892 86.4716C39.768 86.7159 40.0653 87.0625 40.2812 87.5114C40.4972 87.9583 40.6051 88.4848 40.6051 89.0909ZM40.0881 89.0909C40.0881 88.5701 40.0009 88.1241 39.8267 87.7528C39.6525 87.3797 39.4148 87.0947 39.1136 86.8977C38.8125 86.7008 38.4706 86.6023 38.0881 86.6023C37.7074 86.6023 37.3665 86.7008 37.0653 86.8977C36.7642 87.0947 36.5256 87.3788 36.3494 87.75C36.1752 88.1212 36.0881 88.5682 36.0881 89.0909C36.0881 89.6117 36.1752 90.0578 36.3494 90.429C36.5237 90.8002 36.7614 91.0852 37.0625 91.2841C37.3636 91.4811 37.7055 91.5795 38.0881 91.5795C38.4706 91.5795 38.8125 91.4811 39.1136 91.2841C39.4167 91.0871 39.6553 90.803 39.8295 90.4318C40.0038 90.0587 40.09 89.6117 40.0881 89.0909ZM42.4212 86.1818V92H41.8899V86.1818H42.4212ZM48.4993 86.1818V92H47.9822L44.5447 87.1278H44.4993V92H43.968V86.1818H44.4822L47.9311 91.0597H47.9766V86.1818H48.4993ZM49.6939 86.6591V86.1818H53.9126V86.6591H52.0689V92H51.5376V86.6591H49.6939ZM57.3672 92H56.8104L58.9268 86.1818H59.495L61.6115 92H61.0547L59.2308 86.8722H59.1911L57.3672 92ZM57.7678 89.7699H60.6541V90.2472H57.7678V89.7699ZM66.4865 86.1818H67.0178V90.0341C67.0178 90.4299 66.925 90.7841 66.7393 91.0966C66.5537 91.4072 66.2952 91.6525 65.9638 91.8324C65.6342 92.0104 65.2507 92.0994 64.8132 92.0994C64.3776 92.0994 63.9941 92.0095 63.6626 91.8295C63.3312 91.6496 63.0727 91.4044 62.8871 91.0938C62.7015 90.7831 62.6087 90.4299 62.6087 90.0341V86.1818H63.1399V89.9972C63.1399 90.3059 63.209 90.5814 63.3473 90.8239C63.4856 91.0644 63.6797 91.2538 63.9297 91.392C64.1816 91.5303 64.4761 91.5994 64.8132 91.5994C65.1503 91.5994 65.4448 91.5303 65.6967 91.392C65.9486 91.2538 66.1428 91.0644 66.2791 90.8239C66.4174 90.5814 66.4865 90.3059 66.4865 89.9972V86.1818ZM68.2095 86.6591V86.1818H72.4283V86.6591H70.5845V92H70.0533V86.6591H68.2095ZM78.152 89.0909C78.152 89.697 78.044 90.2244 77.8281 90.6733C77.6122 91.1203 77.3149 91.4669 76.9361 91.7131C76.5592 91.9574 76.1255 92.0795 75.6349 92.0795C75.1444 92.0795 74.7098 91.9574 74.331 91.7131C73.9541 91.4669 73.6577 91.1203 73.4418 90.6733C73.2277 90.2244 73.1207 89.697 73.1207 89.0909C73.1207 88.4848 73.2277 87.9583 73.4418 87.5114C73.6577 87.0625 73.955 86.7159 74.3338 86.4716C74.7126 86.2254 75.1463 86.1023 75.6349 86.1023C76.1255 86.1023 76.5592 86.2254 76.9361 86.4716C77.3149 86.7159 77.6122 87.0625 77.8281 87.5114C78.044 87.9583 78.152 88.4848 78.152 89.0909ZM77.6349 89.0909C77.6349 88.5701 77.5478 88.1241 77.3736 87.7528C77.1993 87.3797 76.9616 87.0947 76.6605 86.8977C76.3594 86.7008 76.0175 86.6023 75.6349 86.6023C75.2543 86.6023 74.9134 86.7008 74.6122 86.8977C74.3111 87.0947 74.0724 87.3788 73.8963 87.75C73.7221 88.1212 73.6349 88.5682 73.6349 89.0909C73.6349 89.6117 73.7221 90.0578 73.8963 90.429C74.0705 90.8002 74.3082 91.0852 74.6094 91.2841C74.9105 91.4811 75.2524 91.5795 75.6349 91.5795C76.0175 91.5795 76.3594 91.4811 76.6605 91.2841C76.9635 91.0871 77.2022 90.803 77.3764 90.4318C77.5507 90.0587 77.6368 89.6117 77.6349 89.0909ZM79.4368 86.1818H80.0504L82.1612 91.25H82.2124L84.3232 86.1818H84.9368V92H84.4368V87.304H84.3913L82.4283 92H81.9453L79.9822 87.304H79.9368V92H79.4368V86.1818ZM86.4922 92H85.9354L88.0518 86.1818H88.62L90.7365 92H90.1797L88.3558 86.8722H88.3161L86.4922 92ZM86.8928 89.7699H89.7791V90.2472H86.8928V89.7699ZM90.7017 86.6591V86.1818H94.9205V86.6591H93.0767V92H92.5455V86.6591H90.7017ZM96.6477 86.1818V92H96.1165V86.1818H96.6477ZM102.964 89.0909C102.964 89.697 102.857 90.2244 102.641 90.6733C102.425 91.1203 102.127 91.4669 101.749 91.7131C101.372 91.9574 100.938 92.0795 100.447 92.0795C99.9569 92.0795 99.5223 91.9574 99.1435 91.7131C98.7666 91.4669 98.4702 91.1203 98.2543 90.6733C98.0402 90.2244 97.9332 89.697 97.9332 89.0909C97.9332 88.4848 98.0402 87.9583 98.2543 87.5114C98.4702 87.0625 98.7675 86.7159 99.1463 86.4716C99.5251 86.2254 99.9588 86.1023 100.447 86.1023C100.938 86.1023 101.372 86.2254 101.749 86.4716C102.127 86.7159 102.425 87.0625 102.641 87.5114C102.857 87.9583 102.964 88.4848 102.964 89.0909ZM102.447 89.0909C102.447 88.5701 102.36 88.1241 102.186 87.7528C102.012 87.3797 101.774 87.0947 101.473 86.8977C101.172 86.7008 100.83 86.6023 100.447 86.6023C100.067 86.6023 99.7259 86.7008 99.4247 86.8977C99.1236 87.0947 98.8849 87.3788 98.7088 87.75C98.5346 88.1212 98.4474 88.5682 98.4474 89.0909C98.4474 89.6117 98.5346 90.0578 98.7088 90.429C98.883 90.8002 99.1207 91.0852 99.4219 91.2841C99.723 91.4811 100.065 91.5795 100.447 91.5795C100.83 91.5795 101.172 91.4811 101.473 91.2841C101.776 91.0871 102.015 90.803 102.189 90.4318C102.363 90.0587 102.449 89.6117 102.447 89.0909ZM108.781 86.1818V92H108.263L104.826 87.1278H104.781V92H104.249V86.1818H104.763L108.212 91.0597H108.258V86.1818H108.781Z" fill="black"/>
<defs>
<linearGradient id="paint0_linear_710_149" x1="3.68374" y1="28.9103" x2="40.44" y2="8.94161" gradientUnits="userSpaceOnUse">
<stop offset="0.104167" stop-opacity="0"/>
<stop offset="0.776042" stop-color="#16056B"/>
</linearGradient>
<linearGradient id="paint1_linear_710_149" x1="0.773673" y1="46.2923" x2="40.938" y2="24.1243" gradientUnits="userSpaceOnUse">
<stop offset="0.104167" stop-opacity="0"/>
<stop offset="0.776042" stop-color="#16056B"/>
</linearGradient>
<linearGradient id="paint2_linear_710_149" x1="49.956" y1="42.4484" x2="59.6919" y2="59.7445" gradientUnits="userSpaceOnUse">
<stop offset="0.988254" stop-color="#16056B"/>
<stop offset="1" stop-opacity="0"/>
</linearGradient>
<linearGradient id="paint3_linear_710_149" x1="81.0252" y1="27.9953" x2="47.3032" y2="49.2375" gradientUnits="userSpaceOnUse">
<stop offset="0.104167" stop-opacity="0"/>
<stop offset="0.957154" stop-color="#16056B"/>
</linearGradient>
<linearGradient id="paint4_linear_710_149" x1="83.7974" y1="6.87652" x2="43.2476" y2="26.3219" gradientUnits="userSpaceOnUse">
<stop offset="0.104167" stop-opacity="0"/>
<stop offset="0.776042" stop-color="#16056B"/>
</linearGradient>
<linearGradient id="paint5_linear_710_149" x1="85.4931" y1="42.4484" x2="95.229" y2="59.7445" gradientUnits="userSpaceOnUse">
<stop offset="0.988254" stop-color="#16056B"/>
<stop offset="1" stop-opacity="0"/>
</linearGradient>
<linearGradient id="paint6_linear_710_149" x1="116.562" y1="27.9953" x2="82.8403" y2="49.2375" gradientUnits="userSpaceOnUse">
<stop offset="0.104167" stop-opacity="0"/>
<stop offset="0.957154" stop-color="#16056B"/>
</linearGradient>
<linearGradient id="paint7_linear_710_149" x1="119.334" y1="6.87652" x2="78.7847" y2="26.3219" gradientUnits="userSpaceOnUse">
<stop offset="0.104167" stop-opacity="0"/>
<stop offset="0.776042" stop-color="#16056B"/>
</linearGradient>
</defs>
</svg>
