<svg xmlns="http://www.w3.org/2000/svg" xmlns:xlink="http://www.w3.org/1999/xlink" width="500" zoomAndPan="magnify" viewBox="0 0 375 374.999991" height="500" preserveAspectRatio="xMidYMid meet" version="1.0"><defs><clipPath id="69db62acc3"><path d="M 128.46875 163 L 209 163 L 209 215 L 128.46875 215 Z M 128.46875 163 " clip-rule="nonzero"/></clipPath><clipPath id="6ccfabff01"><path d="M 128.46875 200 L 212 200 L 212 241 L 128.46875 241 Z M 128.46875 200 " clip-rule="nonzero"/></clipPath><clipPath id="5bdf8b4189"><path d="M 162 147 L 245.46875 147 L 245.46875 225 L 162 225 Z M 162 147 " clip-rule="nonzero"/></clipPath></defs><g clip-path="url(#69db62acc3)"><path fill="#002d72" d="M 150.019531 214.863281 L 128.640625 214.863281 L 128.640625 163.902344 C 139.207031 163.046875 150.117188 163.566406 160.542969 165.734375 C 161.710938 165.972656 162.871094 166.238281 164.035156 166.53125 C 168.109375 167.535156 172.101562 168.804688 175.945312 170.367188 C 177.46875 170.976562 178.972656 171.628906 180.441406 172.34375 C 189.75 176.769531 198.074219 183.003906 204.628906 191.324219 C 206.132812 193.015625 207.433594 194.886719 208.5 196.886719 L 203.730469 196.886719 C 200.308594 191.515625 193.550781 187.617188 185.597656 187.8125 L 150.019531 187.8125 Z M 150.019531 214.863281 " fill-opacity="1" fill-rule="nonzero"/></g><g clip-path="url(#6ccfabff01)"><path fill="#002d72" d="M 211.964844 210.648438 C 211.808594 214.898438 211.101562 218.558594 209.933594 221.707031 C 209.503906 222.878906 209.007812 223.984375 208.445312 225.023438 C 195.699219 248.742188 151.761719 237.265625 128.640625 239.753906 L 128.640625 221.328125 C 138.792969 219.835938 175.332031 224.316406 193.101562 219.652344 C 194.960938 219.167969 196.613281 218.578125 198.011719 217.871094 C 199.65625 217.042969 200.941406 216.054688 201.785156 214.871094 C 206.113281 210.347656 206.960938 205.089844 205.410156 200.417969 L 210.089844 200.417969 C 211.332031 203.671875 211.972656 207.15625 211.964844 210.648438 Z M 211.964844 210.648438 " fill-opacity="1" fill-rule="nonzero"/></g><g clip-path="url(#5bdf8b4189)"><path fill="#002d72" d="M 172.179688 173.363281 C 167.863281 177.882812 167.007812 183.136719 168.554688 187.8125 C 170.898438 194.914062 178.761719 200.652344 188.371094 200.417969 L 223.949219 200.417969 L 223.949219 173.363281 L 245.328125 173.363281 L 245.328125 224.328125 C 233.566406 225.28125 221.398438 224.539062 209.933594 221.707031 C 205.851562 220.703125 201.855469 219.433594 198.011719 217.871094 C 186.890625 213.390625 176.933594 206.546875 169.339844 196.90625 C 166.964844 194.242188 165.109375 191.144531 163.867188 187.8125 C 162.625 184.558594 161.984375 181.082031 162 177.582031 C 162.160156 173.328125 162.863281 169.679688 164.035156 166.53125 C 174.378906 138.464844 221.195312 151.066406 245.328125 148.476562 L 245.328125 166.898438 C 234.109375 168.558594 190.683594 162.914062 175.945312 170.367188 C 174.308594 171.195312 173.027344 172.183594 172.179688 173.363281 Z M 172.179688 173.363281 " fill-opacity="1" fill-rule="nonzero"/></g></svg>