<svg xmlns="http://www.w3.org/2000/svg" xmlns:xlink="http://www.w3.org/1999/xlink" width="500" zoomAndPan="magnify" viewBox="0 0 375 374.999991" height="500" preserveAspectRatio="xMidYMid meet" version="1.0"><defs><g/><clipPath id="c0b99ba1d3"><path d="M 61 152.007812 L 129.910156 152.007812 L 129.910156 170 L 61 170 Z M 61 152.007812 " clip-rule="nonzero"/></clipPath><clipPath id="2bc28e3249"><path d="M 80 172 L 129.910156 172 L 129.910156 189 L 80 189 Z M 80 172 " clip-rule="nonzero"/></clipPath><clipPath id="dc880652b4"><path d="M 46.660156 184 L 129.910156 184 L 129.910156 203 L 46.660156 203 Z M 46.660156 184 " clip-rule="nonzero"/></clipPath><clipPath id="bb86fcd943"><path d="M 65 205 L 129.910156 205 L 129.910156 223.257812 L 65 223.257812 Z M 65 205 " clip-rule="nonzero"/></clipPath></defs><g clip-path="url(#c0b99ba1d3)"><path fill="#2e479f" d="M 69.378906 167.628906 C 73.292969 167.628906 76.515625 164.707031 77.039062 160.910156 L 90.265625 160.910156 L 95.925781 169.113281 C 96.140625 169.417969 96.445312 169.546875 96.792969 169.546875 L 128.867188 169.546875 C 129.433594 169.546875 129.910156 169.070312 129.910156 168.5 C 129.910156 167.933594 129.433594 167.453125 128.867188 167.453125 L 97.316406 167.453125 L 91.660156 159.253906 C 91.441406 158.945312 91.136719 158.816406 90.789062 158.816406 L 76.992188 158.816406 C 76.472656 155.019531 73.25 152.097656 69.335938 152.097656 C 65.070312 152.097656 61.589844 155.585938 61.589844 159.863281 C 61.589844 164.136719 65.113281 167.628906 69.378906 167.628906 Z M 69.378906 154.234375 C 72.46875 154.234375 74.992188 156.765625 74.992188 159.863281 C 74.992188 162.960938 72.46875 165.492188 69.378906 165.492188 C 66.289062 165.492188 63.765625 162.960938 63.765625 159.863281 C 63.765625 156.765625 66.246094 154.234375 69.378906 154.234375 Z M 69.378906 154.234375 " fill-opacity="1" fill-rule="nonzero"/></g><g clip-path="url(#2bc28e3249)"><path fill="#2e479f" d="M 128.867188 179.582031 L 95.488281 179.582031 C 94.964844 175.785156 91.746094 172.863281 87.828125 172.863281 C 83.566406 172.863281 80.082031 176.355469 80.082031 180.628906 C 80.082031 184.90625 83.566406 188.394531 87.828125 188.394531 C 91.746094 188.394531 94.964844 185.472656 95.488281 181.675781 L 128.867188 181.675781 C 129.433594 181.675781 129.910156 181.195312 129.910156 180.628906 C 129.910156 180.0625 129.433594 179.582031 128.867188 179.582031 Z M 87.828125 186.300781 C 84.738281 186.300781 82.214844 183.769531 82.214844 180.671875 C 82.214844 177.574219 84.738281 175 87.828125 175 C 90.917969 175 93.445312 177.53125 93.445312 180.628906 C 93.445312 183.769531 90.917969 186.300781 87.828125 186.300781 Z M 87.828125 186.300781 " fill-opacity="1" fill-rule="nonzero"/></g><g clip-path="url(#dc880652b4)"><path fill="#2e479f" d="M 128.867188 193.019531 L 99.753906 193.019531 C 99.40625 193.019531 99.058594 193.195312 98.839844 193.5 L 94.75 200.042969 L 76.820312 200.042969 L 72.382812 191.753906 C 72.207031 191.40625 71.859375 191.1875 71.46875 191.1875 L 62.066406 191.1875 C 61.542969 187.390625 58.324219 184.46875 54.40625 184.46875 C 50.144531 184.46875 46.660156 187.960938 46.660156 192.234375 C 46.660156 196.511719 50.144531 200 54.40625 200 C 58.324219 200 61.542969 197.078125 62.066406 193.28125 L 70.8125 193.28125 L 75.253906 201.570312 C 75.425781 201.921875 75.773438 202.136719 76.167969 202.136719 L 95.316406 202.136719 C 95.664062 202.136719 96.011719 201.964844 96.230469 201.660156 L 100.320312 195.113281 L 128.824219 195.113281 C 129.390625 195.113281 129.867188 194.632812 129.867188 194.066406 C 129.910156 193.5 129.433594 193.019531 128.867188 193.019531 Z M 54.40625 197.949219 C 51.316406 197.949219 48.792969 195.417969 48.792969 192.320312 C 48.792969 189.222656 51.316406 186.695312 54.40625 186.695312 C 57.496094 186.695312 60.023438 189.222656 60.023438 192.320312 C 60.066406 195.417969 57.542969 197.949219 54.40625 197.949219 Z M 54.40625 197.949219 " fill-opacity="1" fill-rule="nonzero"/></g><g clip-path="url(#bb86fcd943)"><path fill="#2e479f" d="M 128.867188 205.367188 L 112.070312 205.367188 C 111.675781 205.367188 111.328125 205.585938 111.15625 205.890625 L 106.195312 214.355469 L 80.867188 214.355469 C 80.34375 210.558594 77.125 207.636719 73.207031 207.636719 C 68.941406 207.636719 65.460938 211.125 65.460938 215.402344 C 65.460938 219.675781 68.941406 223.167969 73.207031 223.167969 C 77.125 223.167969 80.34375 220.242188 80.867188 216.449219 L 106.804688 216.449219 C 107.195312 216.449219 107.542969 216.230469 107.71875 215.925781 L 112.679688 207.460938 L 128.867188 207.460938 C 129.433594 207.460938 129.910156 206.980469 129.910156 206.414062 C 129.910156 205.847656 129.433594 205.367188 128.867188 205.367188 Z M 73.207031 221.074219 C 70.117188 221.074219 67.59375 218.542969 67.59375 215.445312 C 67.59375 212.347656 70.117188 209.816406 73.207031 209.816406 C 76.296875 209.816406 78.820312 212.347656 78.820312 215.445312 C 78.863281 218.542969 76.339844 221.074219 73.207031 221.074219 Z M 73.207031 221.074219 " fill-opacity="1" fill-rule="nonzero"/></g><g fill="#2e479f" fill-opacity="1"><g transform="translate(137.811324, 192.260668)"><g><path d="M 17.925781 -4.710938 L 8.660156 -4.710938 C 8.105469 -4.710938 7.660156 -4.789062 7.292969 -4.894531 C 6.949219 -5.027344 6.710938 -5.210938 6.5 -5.476562 C 6.292969 -5.765625 6.132812 -6.160156 6.054688 -6.660156 C 6.027344 -6.792969 6.027344 -6.976562 6 -7.105469 C 6 -7.105469 6.027344 -9.003906 6.054688 -9.003906 L 17.820312 -9.003906 C 18.03125 -9.003906 18.558594 -9.109375 18.558594 -9.921875 L 18.558594 -12.003906 C 18.558594 -12.820312 18.03125 -12.898438 17.820312 -12.898438 L 4.238281 -12.871094 C 3.472656 -12.820312 2.816406 -12.425781 2.449219 -11.765625 C 2.316406 -11.554688 2.210938 -11.34375 2.160156 -11.109375 L 2.105469 -7.792969 L 2.105469 -7.660156 C 2.132812 -6.421875 2.265625 -5.371094 2.449219 -4.5 C 2.683594 -3.449219 3.078125 -2.578125 3.578125 -1.921875 C 4.105469 -1.238281 4.789062 -0.761719 5.632812 -0.472656 C 6.449219 -0.15625 7.421875 -0.0273438 8.582031 -0.0273438 L 17.925781 -0.0273438 C 18.164062 -0.0273438 18.6875 -0.105469 18.6875 -0.921875 L 18.6875 -3.816406 C 18.6875 -4.632812 18.164062 -4.710938 17.925781 -4.710938 Z M 17.953125 -21.742188 L 2.816406 -21.742188 C 2.605469 -21.742188 2.105469 -21.636719 2.105469 -20.796875 L 2.105469 -18.742188 C 2.105469 -17.925781 2.605469 -17.847656 2.816406 -17.847656 L 17.953125 -17.820312 C 18.164062 -17.820312 18.6875 -17.925781 18.6875 -18.742188 L 18.6875 -20.820312 C 18.6875 -21.636719 18.164062 -21.742188 17.953125 -21.742188 Z M 17.953125 -21.742188 "/></g></g></g><g fill="#2e479f" fill-opacity="1"><g transform="translate(159.921729, 192.260668)"><g><path d="M 23.085938 -21.980469 L 20.191406 -21.980469 C 19.847656 -21.980469 19.585938 -21.796875 19.425781 -21.425781 L 12.976562 -5.132812 C 12.976562 -5.082031 12.949219 -5.082031 12.949219 -5.082031 L 12.84375 -5.054688 C 12.84375 -5.054688 12.84375 -5.082031 12.820312 -5.132812 L 6.265625 -21.425781 C 6.160156 -21.796875 5.894531 -21.980469 5.527344 -21.980469 L 2.683594 -21.980469 C 2.289062 -21.980469 2.160156 -21.714844 2.132812 -21.609375 C 2.078125 -21.425781 2.105469 -21.214844 2.210938 -20.953125 L 9.582031 -2.738281 C 9.660156 -2.578125 9.714844 -2.449219 9.765625 -2.34375 C 10.160156 -0.949219 11.449219 0.0273438 12.898438 0.0273438 C 13.554688 0.0273438 14.1875 -0.183594 14.714844 -0.554688 C 14.871094 -0.632812 15.003906 -0.710938 15.109375 -0.816406 C 15.503906 -1.15625 15.871094 -1.789062 16.265625 -2.738281 L 23.585938 -20.953125 C 23.691406 -21.214844 23.71875 -21.425781 23.664062 -21.609375 C 23.613281 -21.742188 23.480469 -21.980469 23.085938 -21.980469 Z M 23.085938 -21.980469 "/></g></g></g><g fill="#2e479f" fill-opacity="1"><g transform="translate(187.033295, 192.260668)"><g><path d="M 17.925781 -4.710938 L 8.660156 -4.710938 C 8.105469 -4.710938 7.660156 -4.789062 7.292969 -4.894531 C 6.949219 -5.027344 6.710938 -5.210938 6.5 -5.476562 C 6.292969 -5.765625 6.132812 -6.160156 6.054688 -6.660156 C 6.027344 -6.792969 6.027344 -6.976562 6 -7.105469 C 6 -7.105469 6.027344 -9.003906 6.054688 -9.003906 L 17.820312 -9.003906 C 18.03125 -9.003906 18.558594 -9.109375 18.558594 -9.921875 L 18.558594 -12.003906 C 18.558594 -12.820312 18.03125 -12.898438 17.820312 -12.898438 L 4.238281 -12.871094 C 3.472656 -12.820312 2.816406 -12.425781 2.449219 -11.765625 C 2.316406 -11.554688 2.210938 -11.34375 2.160156 -11.109375 L 2.105469 -7.792969 L 2.105469 -7.660156 C 2.132812 -6.421875 2.265625 -5.371094 2.449219 -4.5 C 2.683594 -3.449219 3.078125 -2.578125 3.578125 -1.921875 C 4.105469 -1.238281 4.789062 -0.761719 5.632812 -0.472656 C 6.449219 -0.15625 7.421875 -0.0273438 8.582031 -0.0273438 L 17.925781 -0.0273438 C 18.164062 -0.0273438 18.6875 -0.105469 18.6875 -0.921875 L 18.6875 -3.816406 C 18.6875 -4.632812 18.164062 -4.710938 17.925781 -4.710938 Z M 17.953125 -21.742188 L 2.816406 -21.742188 C 2.605469 -21.742188 2.105469 -21.636719 2.105469 -20.796875 L 2.105469 -18.742188 C 2.105469 -17.925781 2.605469 -17.847656 2.816406 -17.847656 L 17.953125 -17.820312 C 18.164062 -17.820312 18.6875 -17.925781 18.6875 -18.742188 L 18.6875 -20.820312 C 18.6875 -21.636719 18.164062 -21.742188 17.953125 -21.742188 Z M 17.953125 -21.742188 "/></g></g></g><g fill="#2e479f" fill-opacity="1"><g transform="translate(209.143699, 192.260668)"><g><path d="M 20.742188 -21.691406 L 18.398438 -21.691406 C 18.164062 -21.691406 17.664062 -21.609375 17.664062 -20.769531 L 17.664062 -4.949219 C 17.664062 -4.921875 17.664062 -4.921875 17.664062 -4.894531 L 17.53125 -4.894531 C 17.503906 -4.894531 17.476562 -4.894531 17.453125 -4.976562 L 9.132812 -19.769531 C 8.921875 -20.164062 8.738281 -20.480469 8.554688 -20.714844 C 8.371094 -20.980469 8.1875 -21.191406 8.003906 -21.320312 C 7.792969 -21.480469 7.554688 -21.585938 7.265625 -21.636719 C 7 -21.664062 6.6875 -21.691406 6.34375 -21.691406 L 4.371094 -21.691406 C 3.605469 -21.691406 3.027344 -21.425781 2.660156 -20.953125 C 2.289062 -20.453125 2.105469 -19.585938 2.105469 -18.292969 L 2.105469 -0.894531 C 2.105469 -0.078125 2.632812 0.0273438 2.871094 0.0273438 L 5.210938 0.0273438 C 5.449219 0.0273438 5.949219 -0.078125 5.949219 -0.894531 L 5.949219 -16.714844 C 5.949219 -16.742188 5.949219 -16.769531 5.949219 -16.769531 L 6.082031 -16.769531 C 6.082031 -16.769531 6.105469 -16.769531 6.160156 -16.6875 L 14.503906 -1.894531 C 14.714844 -1.472656 14.925781 -1.15625 15.109375 -0.921875 C 15.292969 -0.65625 15.476562 -0.472656 15.6875 -0.34375 C 15.898438 -0.183594 16.136719 -0.105469 16.398438 -0.0507812 C 16.636719 0 16.925781 0.0273438 17.292969 0.0273438 L 19.214844 0.0273438 C 19.980469 0.0273438 20.558594 -0.238281 20.925781 -0.738281 C 21.296875 -1.210938 21.480469 -2.078125 21.480469 -3.371094 L 21.480469 -20.769531 C 21.480469 -21.609375 20.953125 -21.691406 20.742188 -21.691406 Z M 20.742188 -21.691406 "/></g></g></g><g fill="#2e479f" fill-opacity="1"><g transform="translate(234.044212, 192.260668)"><g><path d="M 20.292969 -21.691406 L 2.871094 -21.691406 C 2.632812 -21.691406 2.105469 -21.609375 2.105469 -20.796875 L 2.105469 -18.742188 C 2.105469 -17.875 2.632812 -17.792969 2.871094 -17.792969 L 9.632812 -17.792969 L 9.632812 -0.894531 C 9.632812 -0.078125 10.160156 0 10.371094 0 L 12.792969 0 C 13.03125 0 13.53125 -0.078125 13.53125 -0.894531 L 13.53125 -17.792969 L 20.292969 -17.792969 C 20.53125 -17.792969 21.058594 -17.875 21.058594 -18.742188 L 21.058594 -20.796875 C 21.058594 -21.609375 20.53125 -21.691406 20.292969 -21.691406 Z M 20.292969 -21.691406 "/></g></g></g><g fill="#2e479f" fill-opacity="1"><g transform="translate(258.523583, 192.260668)"><g><path d="M 19.109375 -21.691406 L 16.6875 -21.691406 C 16.476562 -21.691406 15.976562 -21.585938 15.976562 -20.769531 L 15.976562 -12.898438 L 6 -12.898438 L 6 -20.769531 C 6 -21.585938 5.5 -21.691406 5.265625 -21.691406 L 2.871094 -21.691406 C 2.632812 -21.691406 2.105469 -21.585938 2.105469 -20.769531 L 2.105469 -0.894531 C 2.105469 -0.078125 2.632812 0.0273438 2.871094 0.0273438 L 5.265625 0.0273438 C 5.5 0.0273438 6 -0.078125 6 -0.894531 L 6 -9.003906 L 15.976562 -9.003906 L 15.976562 -0.894531 C 15.976562 -0.078125 16.476562 0.0273438 16.6875 0.0273438 L 19.109375 0.0273438 C 19.347656 0.0273438 19.875 -0.078125 19.875 -0.894531 L 19.875 -20.769531 C 19.875 -21.585938 19.347656 -21.691406 19.109375 -21.691406 Z M 19.109375 -21.691406 "/></g></g></g><g fill="#2e479f" fill-opacity="1"><g transform="translate(281.818461, 192.260668)"><g><path d="M 20.292969 -21.691406 L 17.875 -21.691406 C 17.636719 -21.691406 17.136719 -21.609375 17.136719 -20.796875 L 17.136719 -7.816406 C 17.136719 -7.027344 17.082031 -6.34375 17.003906 -5.84375 C 16.925781 -5.34375 16.769531 -4.949219 16.582031 -4.660156 C 16.371094 -4.394531 16.136719 -4.210938 15.792969 -4.078125 C 15.453125 -3.976562 14.976562 -3.894531 14.425781 -3.894531 L 8.738281 -3.894531 C 8.1875 -3.894531 7.710938 -3.976562 7.371094 -4.078125 C 7.027344 -4.210938 6.792969 -4.394531 6.582031 -4.660156 C 6.394531 -4.949219 6.238281 -5.34375 6.132812 -5.84375 C 6.054688 -6.34375 6 -7.027344 6 -7.816406 L 6 -20.796875 C 6 -21.609375 5.5 -21.691406 5.265625 -21.691406 L 2.871094 -21.691406 C 2.632812 -21.691406 2.105469 -21.609375 2.105469 -20.796875 L 2.105469 -8.238281 C 2.105469 -6.765625 2.210938 -5.5 2.449219 -4.476562 C 2.683594 -3.421875 3.078125 -2.554688 3.605469 -1.894531 C 4.105469 -1.210938 4.816406 -0.738281 5.632812 -0.421875 C 6.449219 -0.132812 7.449219 0 8.609375 0 L 14.53125 0 C 15.6875 0 16.6875 -0.132812 17.503906 -0.421875 C 18.347656 -0.738281 19.03125 -1.210938 19.558594 -1.894531 C 20.085938 -2.554688 20.453125 -3.421875 20.691406 -4.476562 C 20.925781 -5.5 21.03125 -6.765625 21.03125 -8.238281 L 21.03125 -20.796875 C 21.03125 -21.609375 20.53125 -21.691406 20.292969 -21.691406 Z M 20.292969 -21.691406 "/></g></g></g><g fill="#2e479f" fill-opacity="1"><g transform="translate(306.27151, 192.260668)"><g><path d="M 20.320312 -14.976562 L 20.320312 -16.453125 C 20.320312 -18.164062 19.980469 -19.480469 19.292969 -20.347656 C 18.609375 -21.242188 17.453125 -21.691406 15.847656 -21.691406 L 4.210938 -21.691406 L 4.210938 -21.664062 C 3.449219 -21.609375 2.789062 -21.191406 2.394531 -20.558594 C 2.289062 -20.347656 2.183594 -20.109375 2.132812 -19.898438 L 2.105469 -1.921875 C 2.160156 -1.632812 2.265625 -1.34375 2.394531 -1.105469 C 2.816406 -0.394531 3.578125 0.0273438 4.394531 0.0273438 L 16.242188 0.0273438 C 17.03125 0.0273438 17.6875 -0.105469 18.214844 -0.367188 C 18.769531 -0.632812 19.214844 -1 19.53125 -1.5 C 19.875 -1.972656 20.085938 -2.554688 20.242188 -3.238281 C 20.375 -3.894531 20.453125 -4.660156 20.453125 -5.476562 L 20.453125 -7.238281 C 20.453125 -8.976562 19.953125 -10.292969 19.003906 -11.160156 C 19.898438 -12.054688 20.320312 -13.34375 20.320312 -14.976562 Z M 5.976562 -4.027344 L 5.976562 -17.636719 C 5.976562 -17.742188 6 -17.792969 6.027344 -17.792969 L 15.160156 -17.792969 C 15.660156 -17.792969 16.03125 -17.664062 16.242188 -17.425781 C 16.453125 -17.1875 16.558594 -16.769531 16.558594 -16.214844 L 16.558594 -14.398438 C 16.558594 -13.898438 16.453125 -13.503906 16.214844 -13.242188 C 16.003906 -13.003906 15.558594 -12.871094 14.871094 -12.871094 L 9.765625 -12.871094 C 9.292969 -12.871094 8.898438 -12.476562 8.898438 -12.003906 L 8.898438 -9.84375 C 8.898438 -9.34375 9.292969 -8.976562 9.765625 -8.976562 L 14.871094 -8.976562 C 15.558594 -8.976562 16.003906 -8.816406 16.242188 -8.554688 C 16.453125 -8.292969 16.582031 -7.871094 16.582031 -7.292969 L 16.582031 -5.5 C 16.582031 -4.894531 16.476562 -4.476562 16.265625 -4.238281 C 16.058594 -4 15.6875 -3.894531 15.160156 -3.894531 L 6 -3.894531 C 6 -3.894531 5.976562 -3.921875 5.976562 -4.027344 Z M 5.976562 -4.027344 "/></g></g></g><g fill="#2e479f" fill-opacity="1"><g transform="translate(137.811324, 205.336935)"><g><path d="M 7.609375 -7.507812 C 7.40625 -7.757812 7.148438 -7.949219 6.828125 -8.066406 C 6.519531 -8.179688 6.136719 -8.238281 5.699219 -8.238281 L 3.257812 -8.238281 C 2.820312 -8.238281 2.449219 -8.179688 2.140625 -8.066406 C 1.820312 -7.949219 1.558594 -7.757812 1.359375 -7.507812 C 1.167969 -7.257812 1.019531 -6.929688 0.929688 -6.527344 C 0.839844 -6.136719 0.800781 -5.667969 0.800781 -5.109375 L 0.800781 -3.128906 C 0.800781 -2.570312 0.839844 -2.089844 0.929688 -1.699219 C 1.019531 -1.300781 1.167969 -0.96875 1.359375 -0.71875 C 1.558594 -0.460938 1.820312 -0.269531 2.140625 -0.160156 C 2.4375 -0.0507812 2.820312 0.0117188 3.257812 0.0117188 L 5.699219 0.0117188 C 6.136719 0.0117188 6.519531 -0.0507812 6.828125 -0.160156 C 7.148438 -0.269531 7.40625 -0.460938 7.609375 -0.710938 C 7.808594 -0.96875 7.949219 -1.300781 8.039062 -1.699219 C 8.117188 -2.089844 8.167969 -2.570312 8.167969 -3.128906 L 8.167969 -5.109375 C 8.167969 -5.660156 8.117188 -6.136719 8.039062 -6.527344 C 7.949219 -6.929688 7.808594 -7.257812 7.609375 -7.507812 Z M 6.679688 -5.277344 L 6.679688 -2.949219 C 6.679688 -2.660156 6.667969 -2.410156 6.628906 -2.210938 C 6.597656 -2.03125 6.539062 -1.871094 6.457031 -1.769531 C 6.386719 -1.660156 6.289062 -1.589844 6.160156 -1.550781 C 6.027344 -1.5 5.859375 -1.480469 5.648438 -1.480469 L 3.308594 -1.480469 C 3.097656 -1.480469 2.929688 -1.5 2.800781 -1.550781 C 2.667969 -1.589844 2.570312 -1.660156 2.5 -1.769531 C 2.417969 -1.871094 2.371094 -2.03125 2.328125 -2.210938 C 2.300781 -2.410156 2.28125 -2.660156 2.28125 -2.949219 L 2.28125 -5.277344 C 2.28125 -5.570312 2.300781 -5.820312 2.328125 -6.019531 C 2.371094 -6.207031 2.417969 -6.359375 2.5 -6.46875 C 2.570312 -6.566406 2.667969 -6.636719 2.800781 -6.6875 C 2.929688 -6.726562 3.097656 -6.757812 3.308594 -6.757812 L 5.648438 -6.757812 C 5.859375 -6.757812 6.027344 -6.726562 6.160156 -6.6875 C 6.289062 -6.636719 6.386719 -6.566406 6.457031 -6.46875 C 6.539062 -6.359375 6.597656 -6.207031 6.628906 -6.019531 C 6.667969 -5.820312 6.679688 -5.570312 6.679688 -5.277344 Z M 6.679688 -5.277344 "/></g></g></g><g fill="#2e479f" fill-opacity="1"><g transform="translate(147.27759, 205.336935)"><g><path d="M 7.878906 -8.238281 L 6.988281 -8.238281 C 6.898438 -8.238281 6.707031 -8.207031 6.707031 -7.886719 L 6.707031 -1.878906 C 6.707031 -1.871094 6.707031 -1.871094 6.707031 -1.859375 L 6.660156 -1.859375 C 6.648438 -1.859375 6.636719 -1.859375 6.628906 -1.890625 L 3.46875 -7.507812 C 3.390625 -7.65625 3.320312 -7.777344 3.25 -7.867188 C 3.179688 -7.96875 3.109375 -8.046875 3.039062 -8.097656 C 2.960938 -8.15625 2.871094 -8.199219 2.757812 -8.21875 C 2.660156 -8.226562 2.539062 -8.238281 2.410156 -8.238281 L 1.660156 -8.238281 C 1.371094 -8.238281 1.148438 -8.136719 1.007812 -7.957031 C 0.871094 -7.769531 0.800781 -7.4375 0.800781 -6.949219 L 0.800781 -0.339844 C 0.800781 -0.03125 1 0.0117188 1.089844 0.0117188 L 1.980469 0.0117188 C 2.070312 0.0117188 2.257812 -0.03125 2.257812 -0.339844 L 2.257812 -6.347656 C 2.257812 -6.359375 2.257812 -6.367188 2.257812 -6.367188 L 2.308594 -6.367188 C 2.308594 -6.367188 2.320312 -6.367188 2.339844 -6.339844 L 5.507812 -0.71875 C 5.589844 -0.558594 5.667969 -0.441406 5.738281 -0.351562 C 5.808594 -0.25 5.878906 -0.179688 5.957031 -0.128906 C 6.039062 -0.0703125 6.128906 -0.0390625 6.226562 -0.0195312 C 6.320312 0 6.429688 0.0117188 6.566406 0.0117188 L 7.296875 0.0117188 C 7.589844 0.0117188 7.808594 -0.0898438 7.949219 -0.28125 C 8.089844 -0.460938 8.15625 -0.789062 8.15625 -1.28125 L 8.15625 -7.886719 C 8.15625 -8.207031 7.957031 -8.238281 7.878906 -8.238281 Z M 7.878906 -8.238281 "/></g></g></g><g fill="#2e479f" fill-opacity="1"><g transform="translate(156.733854, 205.336935)"><g><path d="M 7.71875 -5.6875 L 7.71875 -6.25 C 7.71875 -6.898438 7.589844 -7.398438 7.328125 -7.726562 C 7.066406 -8.066406 6.628906 -8.238281 6.019531 -8.238281 L 1.597656 -8.238281 L 1.597656 -8.226562 C 1.308594 -8.207031 1.058594 -8.046875 0.910156 -7.808594 C 0.871094 -7.726562 0.828125 -7.636719 0.808594 -7.558594 L 0.800781 -0.730469 C 0.820312 -0.621094 0.859375 -0.511719 0.910156 -0.417969 C 1.070312 -0.148438 1.359375 0.0117188 1.667969 0.0117188 L 6.167969 0.0117188 C 6.46875 0.0117188 6.71875 -0.0390625 6.917969 -0.140625 C 7.128906 -0.238281 7.296875 -0.378906 7.417969 -0.570312 C 7.546875 -0.75 7.628906 -0.96875 7.6875 -1.230469 C 7.738281 -1.480469 7.769531 -1.769531 7.769531 -2.078125 L 7.769531 -2.75 C 7.769531 -3.410156 7.578125 -3.910156 7.21875 -4.238281 C 7.558594 -4.578125 7.71875 -5.070312 7.71875 -5.6875 Z M 2.269531 -1.53125 L 2.269531 -6.699219 C 2.269531 -6.738281 2.28125 -6.757812 2.289062 -6.757812 L 5.757812 -6.757812 C 5.949219 -6.757812 6.089844 -6.707031 6.167969 -6.617188 C 6.25 -6.527344 6.289062 -6.367188 6.289062 -6.160156 L 6.289062 -5.46875 C 6.289062 -5.277344 6.25 -5.128906 6.160156 -5.027344 C 6.078125 -4.9375 5.910156 -4.890625 5.648438 -4.890625 L 3.710938 -4.890625 C 3.527344 -4.890625 3.378906 -4.738281 3.378906 -4.558594 L 3.378906 -3.738281 C 3.378906 -3.550781 3.527344 -3.410156 3.710938 -3.410156 L 5.648438 -3.410156 C 5.910156 -3.410156 6.078125 -3.347656 6.167969 -3.25 C 6.25 -3.148438 6.296875 -2.988281 6.296875 -2.769531 L 6.296875 -2.089844 C 6.296875 -1.859375 6.257812 -1.699219 6.179688 -1.609375 C 6.097656 -1.519531 5.957031 -1.480469 5.757812 -1.480469 L 2.28125 -1.480469 C 2.28125 -1.480469 2.269531 -1.488281 2.269531 -1.53125 Z M 2.269531 -1.53125 "/></g></g></g><g fill="#2e479f" fill-opacity="1"><g transform="translate(165.800275, 205.336935)"><g><path d="M 7.609375 -7.507812 C 7.40625 -7.757812 7.148438 -7.949219 6.828125 -8.066406 C 6.519531 -8.179688 6.136719 -8.238281 5.699219 -8.238281 L 3.257812 -8.238281 C 2.820312 -8.238281 2.449219 -8.179688 2.140625 -8.066406 C 1.820312 -7.949219 1.558594 -7.757812 1.359375 -7.507812 C 1.167969 -7.257812 1.019531 -6.929688 0.929688 -6.527344 C 0.839844 -6.136719 0.800781 -5.667969 0.800781 -5.109375 L 0.800781 -3.128906 C 0.800781 -2.570312 0.839844 -2.089844 0.929688 -1.699219 C 1.019531 -1.300781 1.167969 -0.96875 1.359375 -0.71875 C 1.558594 -0.460938 1.820312 -0.269531 2.140625 -0.160156 C 2.4375 -0.0507812 2.820312 0.0117188 3.257812 0.0117188 L 5.699219 0.0117188 C 6.136719 0.0117188 6.519531 -0.0507812 6.828125 -0.160156 C 7.148438 -0.269531 7.40625 -0.460938 7.609375 -0.710938 C 7.808594 -0.96875 7.949219 -1.300781 8.039062 -1.699219 C 8.117188 -2.089844 8.167969 -2.570312 8.167969 -3.128906 L 8.167969 -5.109375 C 8.167969 -5.660156 8.117188 -6.136719 8.039062 -6.527344 C 7.949219 -6.929688 7.808594 -7.257812 7.609375 -7.507812 Z M 6.679688 -5.277344 L 6.679688 -2.949219 C 6.679688 -2.660156 6.667969 -2.410156 6.628906 -2.210938 C 6.597656 -2.03125 6.539062 -1.871094 6.457031 -1.769531 C 6.386719 -1.660156 6.289062 -1.589844 6.160156 -1.550781 C 6.027344 -1.5 5.859375 -1.480469 5.648438 -1.480469 L 3.308594 -1.480469 C 3.097656 -1.480469 2.929688 -1.5 2.800781 -1.550781 C 2.667969 -1.589844 2.570312 -1.660156 2.5 -1.769531 C 2.417969 -1.871094 2.371094 -2.03125 2.328125 -2.210938 C 2.300781 -2.410156 2.28125 -2.660156 2.28125 -2.949219 L 2.28125 -5.277344 C 2.28125 -5.570312 2.300781 -5.820312 2.328125 -6.019531 C 2.371094 -6.207031 2.417969 -6.359375 2.5 -6.46875 C 2.570312 -6.566406 2.667969 -6.636719 2.800781 -6.6875 C 2.929688 -6.726562 3.097656 -6.757812 3.308594 -6.757812 L 5.648438 -6.757812 C 5.859375 -6.757812 6.027344 -6.726562 6.160156 -6.6875 C 6.289062 -6.636719 6.386719 -6.566406 6.457031 -6.46875 C 6.539062 -6.359375 6.597656 -6.207031 6.628906 -6.019531 C 6.667969 -5.820312 6.679688 -5.570312 6.679688 -5.277344 Z M 6.679688 -5.277344 "/></g></g></g><g fill="#2e479f" fill-opacity="1"><g transform="translate(175.266541, 205.336935)"><g><path d="M 6.160156 -7.308594 C 6.136719 -7.359375 6.117188 -7.417969 6.097656 -7.457031 C 5.9375 -7.976562 5.457031 -8.347656 4.910156 -8.347656 C 4.660156 -8.347656 4.417969 -8.277344 4.21875 -8.136719 C 4.160156 -8.109375 4.109375 -8.066406 4.070312 -8.039062 C 3.917969 -7.90625 3.769531 -7.667969 3.628906 -7.308594 L 0.839844 -0.378906 C 0.808594 -0.289062 0.800781 -0.199219 0.820312 -0.140625 C 0.828125 -0.078125 0.878906 0.0117188 1.039062 0.0117188 L 2.140625 0.0117188 C 2.269531 0.0117188 2.371094 -0.0703125 2.417969 -0.199219 L 2.988281 -1.628906 L 5.179688 -1.628906 C 5.289062 -1.628906 5.386719 -1.679688 5.4375 -1.769531 C 5.5 -1.847656 5.507812 -1.960938 5.480469 -2.058594 L 5.117188 -2.949219 C 5.070312 -3.070312 4.957031 -3.148438 4.828125 -3.148438 L 3.589844 -3.148438 L 4.867188 -6.386719 C 4.878906 -6.410156 4.890625 -6.417969 4.890625 -6.417969 L 4.929688 -6.417969 C 4.929688 -6.417969 4.929688 -6.417969 4.9375 -6.398438 L 7.417969 -0.210938 C 7.46875 -0.0703125 7.566406 0.0117188 7.707031 0.0117188 L 8.777344 0.0117188 C 8.9375 0.0117188 8.976562 -0.0898438 8.996094 -0.140625 C 9.019531 -0.199219 9.007812 -0.289062 8.96875 -0.378906 Z M 6.160156 -7.308594 "/></g></g></g><g fill="#2e479f" fill-opacity="1"><g transform="translate(185.582474, 205.336935)"><g><path d="M 7.617188 -5.847656 C 7.617188 -5.839844 7.617188 -5.828125 7.617188 -5.820312 C 7.617188 -5.808594 7.617188 -5.796875 7.617188 -5.789062 Z M 7.808594 -0.429688 L 6.058594 -3.429688 C 6.546875 -3.488281 6.929688 -3.699219 7.179688 -4.039062 C 7.457031 -4.449219 7.609375 -5.039062 7.617188 -5.820312 C 7.609375 -6.597656 7.457031 -7.1875 7.179688 -7.597656 C 6.878906 -8.027344 6.378906 -8.238281 5.699219 -8.238281 L 1.089844 -8.238281 C 1 -8.238281 0.800781 -8.207031 0.800781 -7.886719 L 0.800781 -7.097656 C 0.800781 -6.789062 1 -6.757812 1.089844 -6.757812 L 5.4375 -6.757812 C 5.699219 -6.757812 5.867188 -6.6875 5.96875 -6.539062 C 6.078125 -6.386719 6.128906 -6.148438 6.128906 -5.820312 C 6.128906 -5.488281 6.078125 -5.25 5.96875 -5.097656 C 5.867188 -4.949219 5.699219 -4.878906 5.4375 -4.878906 L 1.089844 -4.878906 C 1 -4.878906 0.800781 -4.847656 0.800781 -4.539062 L 0.800781 -0.339844 C 0.800781 -0.03125 1 0.0117188 1.089844 0.0117188 L 2 0.0117188 C 2.089844 0.0117188 2.28125 -0.03125 2.28125 -0.339844 L 2.28125 -3.398438 L 4.390625 -3.398438 L 6.199219 -0.191406 C 6.238281 -0.128906 6.269531 -0.078125 6.308594 -0.0507812 C 6.359375 -0.0117188 6.429688 0.0117188 6.519531 0.0117188 L 7.617188 0.0117188 C 7.738281 0.0117188 7.828125 -0.0703125 7.847656 -0.191406 C 7.859375 -0.289062 7.847656 -0.371094 7.808594 -0.429688 Z M 7.808594 -0.429688 "/></g></g></g><g fill="#2e479f" fill-opacity="1"><g transform="translate(194.738856, 205.336935)"><g><path d="M 7.628906 -6.378906 C 7.527344 -6.796875 7.359375 -7.148438 7.148438 -7.429688 C 6.929688 -7.699219 6.636719 -7.90625 6.296875 -8.039062 C 5.957031 -8.167969 5.558594 -8.238281 5.089844 -8.238281 L 1.597656 -8.238281 L 1.597656 -8.226562 C 1.308594 -8.207031 1.058594 -8.046875 0.910156 -7.808594 C 0.871094 -7.726562 0.828125 -7.636719 0.808594 -7.558594 L 0.800781 -0.730469 C 0.820312 -0.621094 0.859375 -0.511719 0.910156 -0.417969 C 1.070312 -0.148438 1.359375 0.0117188 1.667969 0.0117188 L 5.089844 0.0117188 C 5.558594 0.0117188 5.96875 -0.0585938 6.296875 -0.191406 C 6.636719 -0.320312 6.929688 -0.53125 7.148438 -0.808594 C 7.359375 -1.078125 7.527344 -1.429688 7.628906 -1.847656 C 7.726562 -2.269531 7.777344 -2.769531 7.777344 -3.328125 L 7.777344 -4.898438 C 7.777344 -5.457031 7.726562 -5.957031 7.628906 -6.378906 Z M 2.269531 -1.53125 L 2.269531 -6.699219 C 2.269531 -6.738281 2.28125 -6.757812 2.289062 -6.757812 L 5.058594 -6.757812 C 5.289062 -6.757812 5.488281 -6.726562 5.648438 -6.667969 C 5.808594 -6.609375 5.929688 -6.527344 6.019531 -6.398438 C 6.117188 -6.269531 6.1875 -6.097656 6.226562 -5.886719 C 6.269531 -5.660156 6.296875 -5.378906 6.296875 -5.046875 L 6.296875 -3.179688 C 6.296875 -2.847656 6.269531 -2.570312 6.226562 -2.347656 C 6.1875 -2.128906 6.117188 -1.960938 6.019531 -1.828125 C 5.929688 -1.710938 5.808594 -1.621094 5.648438 -1.558594 C 5.488281 -1.5 5.289062 -1.480469 5.058594 -1.480469 L 2.28125 -1.480469 C 2.28125 -1.480469 2.269531 -1.488281 2.269531 -1.53125 Z M 2.269531 -1.53125 "/></g></g></g><g fill="#2e479f" fill-opacity="1"><g transform="translate(203.81528, 205.336935)"><g><path d="M 2 -8.238281 L 1.078125 -8.238281 C 1 -8.238281 0.800781 -8.199219 0.800781 -7.886719 L 0.800781 -0.339844 C 0.800781 -0.03125 1 0.0117188 1.078125 0.0117188 L 2 0.0117188 C 2.078125 0.0117188 2.28125 -0.03125 2.28125 -0.339844 L 2.28125 -7.886719 C 2.28125 -8.199219 2.078125 -8.238281 2 -8.238281 Z M 2 -8.238281 "/></g></g></g><g fill="#2e479f" fill-opacity="1"><g transform="translate(207.39387, 205.336935)"><g><path d="M 7.878906 -8.238281 L 6.988281 -8.238281 C 6.898438 -8.238281 6.707031 -8.207031 6.707031 -7.886719 L 6.707031 -1.878906 C 6.707031 -1.871094 6.707031 -1.871094 6.707031 -1.859375 L 6.660156 -1.859375 C 6.648438 -1.859375 6.636719 -1.859375 6.628906 -1.890625 L 3.46875 -7.507812 C 3.390625 -7.65625 3.320312 -7.777344 3.25 -7.867188 C 3.179688 -7.96875 3.109375 -8.046875 3.039062 -8.097656 C 2.960938 -8.15625 2.871094 -8.199219 2.757812 -8.21875 C 2.660156 -8.226562 2.539062 -8.238281 2.410156 -8.238281 L 1.660156 -8.238281 C 1.371094 -8.238281 1.148438 -8.136719 1.007812 -7.957031 C 0.871094 -7.769531 0.800781 -7.4375 0.800781 -6.949219 L 0.800781 -0.339844 C 0.800781 -0.03125 1 0.0117188 1.089844 0.0117188 L 1.980469 0.0117188 C 2.070312 0.0117188 2.257812 -0.03125 2.257812 -0.339844 L 2.257812 -6.347656 C 2.257812 -6.359375 2.257812 -6.367188 2.257812 -6.367188 L 2.308594 -6.367188 C 2.308594 -6.367188 2.320312 -6.367188 2.339844 -6.339844 L 5.507812 -0.71875 C 5.589844 -0.558594 5.667969 -0.441406 5.738281 -0.351562 C 5.808594 -0.25 5.878906 -0.179688 5.957031 -0.128906 C 6.039062 -0.0703125 6.128906 -0.0390625 6.226562 -0.0195312 C 6.320312 0 6.429688 0.0117188 6.566406 0.0117188 L 7.296875 0.0117188 C 7.589844 0.0117188 7.808594 -0.0898438 7.949219 -0.28125 C 8.089844 -0.460938 8.15625 -0.789062 8.15625 -1.28125 L 8.15625 -7.886719 C 8.15625 -8.207031 7.957031 -8.238281 7.878906 -8.238281 Z M 7.878906 -8.238281 "/></g></g></g><g fill="#2e479f" fill-opacity="1"><g transform="translate(216.850134, 205.336935)"><g><path d="M 7.566406 -8.238281 L 3.269531 -8.238281 C 2.828125 -8.238281 2.449219 -8.179688 2.140625 -8.066406 C 1.828125 -7.949219 1.558594 -7.757812 1.371094 -7.507812 C 1.167969 -7.25 1.019531 -6.929688 0.929688 -6.527344 C 0.839844 -6.136719 0.800781 -5.660156 0.800781 -5.109375 L 0.800781 -3.128906 C 0.800781 -2.570312 0.839844 -2.089844 0.929688 -1.691406 C 1.019531 -1.300781 1.167969 -0.96875 1.371094 -0.710938 C 1.570312 -0.460938 1.828125 -0.269531 2.140625 -0.160156 C 2.449219 -0.0507812 2.828125 0.0117188 3.269531 0.0117188 L 6.6875 0.0117188 C 7.058594 0.0117188 7.347656 -0.140625 7.546875 -0.429688 C 7.738281 -0.710938 7.839844 -1.179688 7.839844 -1.847656 L 7.839844 -4.527344 C 7.839844 -4.910156 7.617188 -4.96875 7.488281 -4.96875 L 3.949219 -4.96875 C 3.867188 -4.96875 3.667969 -4.929688 3.667969 -4.609375 L 3.667969 -3.847656 C 3.667969 -3.519531 3.867188 -3.488281 3.949219 -3.488281 L 6.4375 -3.488281 C 6.4375 -3.488281 6.449219 -2.089844 6.449219 -2.089844 C 6.449219 -1.78125 6.398438 -1.648438 6.359375 -1.589844 C 6.308594 -1.507812 6.226562 -1.480469 6.117188 -1.480469 L 3.320312 -1.480469 C 3.109375 -1.480469 2.929688 -1.5 2.800781 -1.550781 C 2.667969 -1.589844 2.578125 -1.660156 2.5 -1.769531 C 2.429688 -1.871094 2.371094 -2.019531 2.339844 -2.210938 C 2.300781 -2.410156 2.28125 -2.660156 2.28125 -2.960938 L 2.28125 -5.277344 C 2.28125 -5.578125 2.300781 -5.828125 2.339844 -6.027344 C 2.371094 -6.207031 2.429688 -6.359375 2.5 -6.46875 C 2.578125 -6.566406 2.667969 -6.636719 2.800781 -6.6875 C 2.929688 -6.726562 3.109375 -6.757812 3.320312 -6.757812 L 7.566406 -6.757812 C 7.648438 -6.757812 7.847656 -6.789062 7.847656 -7.109375 L 7.847656 -7.886719 C 7.847656 -8.199219 7.648438 -8.238281 7.566406 -8.238281 Z M 7.566406 -8.238281 "/></g></g></g><g fill="#2e479f" fill-opacity="1"><g transform="translate(225.996526, 205.336935)"><g/></g></g><g fill="#2e479f" fill-opacity="1"><g transform="translate(231.634297, 205.336935)"><g><path d="M 7.609375 -7.507812 C 7.40625 -7.757812 7.148438 -7.949219 6.828125 -8.066406 C 6.519531 -8.179688 6.136719 -8.238281 5.699219 -8.238281 L 3.257812 -8.238281 C 2.820312 -8.238281 2.449219 -8.179688 2.140625 -8.066406 C 1.820312 -7.949219 1.558594 -7.757812 1.359375 -7.507812 C 1.167969 -7.257812 1.019531 -6.929688 0.929688 -6.527344 C 0.839844 -6.136719 0.800781 -5.667969 0.800781 -5.109375 L 0.800781 -3.128906 C 0.800781 -2.570312 0.839844 -2.089844 0.929688 -1.699219 C 1.019531 -1.300781 1.167969 -0.96875 1.359375 -0.71875 C 1.558594 -0.460938 1.820312 -0.269531 2.140625 -0.160156 C 2.4375 -0.0507812 2.820312 0.0117188 3.257812 0.0117188 L 5.699219 0.0117188 C 6.136719 0.0117188 6.519531 -0.0507812 6.828125 -0.160156 C 7.148438 -0.269531 7.40625 -0.460938 7.609375 -0.710938 C 7.808594 -0.96875 7.949219 -1.300781 8.039062 -1.699219 C 8.117188 -2.089844 8.167969 -2.570312 8.167969 -3.128906 L 8.167969 -5.109375 C 8.167969 -5.660156 8.117188 -6.136719 8.039062 -6.527344 C 7.949219 -6.929688 7.808594 -7.257812 7.609375 -7.507812 Z M 6.679688 -5.277344 L 6.679688 -2.949219 C 6.679688 -2.660156 6.667969 -2.410156 6.628906 -2.210938 C 6.597656 -2.03125 6.539062 -1.871094 6.457031 -1.769531 C 6.386719 -1.660156 6.289062 -1.589844 6.160156 -1.550781 C 6.027344 -1.5 5.859375 -1.480469 5.648438 -1.480469 L 3.308594 -1.480469 C 3.097656 -1.480469 2.929688 -1.5 2.800781 -1.550781 C 2.667969 -1.589844 2.570312 -1.660156 2.5 -1.769531 C 2.417969 -1.871094 2.371094 -2.03125 2.328125 -2.210938 C 2.300781 -2.410156 2.28125 -2.660156 2.28125 -2.949219 L 2.28125 -5.277344 C 2.28125 -5.570312 2.300781 -5.820312 2.328125 -6.019531 C 2.371094 -6.207031 2.417969 -6.359375 2.5 -6.46875 C 2.570312 -6.566406 2.667969 -6.636719 2.800781 -6.6875 C 2.929688 -6.726562 3.097656 -6.757812 3.308594 -6.757812 L 5.648438 -6.757812 C 5.859375 -6.757812 6.027344 -6.726562 6.160156 -6.6875 C 6.289062 -6.636719 6.386719 -6.566406 6.457031 -6.46875 C 6.539062 -6.359375 6.597656 -6.207031 6.628906 -6.019531 C 6.667969 -5.820312 6.679688 -5.570312 6.679688 -5.277344 Z M 6.679688 -5.277344 "/></g></g></g><g fill="#2e479f" fill-opacity="1"><g transform="translate(241.100563, 205.336935)"><g><path d="M 7.617188 -5.847656 C 7.617188 -5.839844 7.617188 -5.828125 7.617188 -5.820312 C 7.617188 -5.808594 7.617188 -5.796875 7.617188 -5.789062 Z M 7.808594 -0.429688 L 6.058594 -3.429688 C 6.546875 -3.488281 6.929688 -3.699219 7.179688 -4.039062 C 7.457031 -4.449219 7.609375 -5.039062 7.617188 -5.820312 C 7.609375 -6.597656 7.457031 -7.1875 7.179688 -7.597656 C 6.878906 -8.027344 6.378906 -8.238281 5.699219 -8.238281 L 1.089844 -8.238281 C 1 -8.238281 0.800781 -8.207031 0.800781 -7.886719 L 0.800781 -7.097656 C 0.800781 -6.789062 1 -6.757812 1.089844 -6.757812 L 5.4375 -6.757812 C 5.699219 -6.757812 5.867188 -6.6875 5.96875 -6.539062 C 6.078125 -6.386719 6.128906 -6.148438 6.128906 -5.820312 C 6.128906 -5.488281 6.078125 -5.25 5.96875 -5.097656 C 5.867188 -4.949219 5.699219 -4.878906 5.4375 -4.878906 L 1.089844 -4.878906 C 1 -4.878906 0.800781 -4.847656 0.800781 -4.539062 L 0.800781 -0.339844 C 0.800781 -0.03125 1 0.0117188 1.089844 0.0117188 L 2 0.0117188 C 2.089844 0.0117188 2.28125 -0.03125 2.28125 -0.339844 L 2.28125 -3.398438 L 4.390625 -3.398438 L 6.199219 -0.191406 C 6.238281 -0.128906 6.269531 -0.078125 6.308594 -0.0507812 C 6.359375 -0.0117188 6.429688 0.0117188 6.519531 0.0117188 L 7.617188 0.0117188 C 7.738281 0.0117188 7.828125 -0.0703125 7.847656 -0.191406 C 7.859375 -0.289062 7.847656 -0.371094 7.808594 -0.429688 Z M 7.808594 -0.429688 "/></g></g></g><g fill="#2e479f" fill-opacity="1"><g transform="translate(250.256946, 205.336935)"><g><path d="M 6.910156 -8.238281 L 3.269531 -8.238281 C 2.828125 -8.238281 2.449219 -8.179688 2.140625 -8.066406 C 1.820312 -7.949219 1.558594 -7.757812 1.371094 -7.507812 C 1.167969 -7.257812 1.019531 -6.929688 0.929688 -6.527344 C 0.839844 -6.136719 0.800781 -5.660156 0.800781 -5.109375 L 0.800781 -3.128906 C 0.800781 -2.570312 0.839844 -2.089844 0.929688 -1.691406 C 1.019531 -1.300781 1.167969 -0.96875 1.371094 -0.710938 C 1.570312 -0.460938 1.828125 -0.269531 2.140625 -0.160156 C 2.449219 -0.0507812 2.828125 0.0117188 3.269531 0.0117188 L 6.910156 0.0117188 C 6.988281 0.0117188 7.1875 -0.03125 7.1875 -0.339844 L 7.1875 -1.128906 C 7.1875 -1.441406 6.988281 -1.480469 6.910156 -1.480469 L 3.320312 -1.480469 C 3.109375 -1.480469 2.929688 -1.5 2.800781 -1.550781 C 2.667969 -1.589844 2.578125 -1.660156 2.5 -1.769531 C 2.417969 -1.871094 2.371094 -2.019531 2.328125 -2.210938 C 2.300781 -2.410156 2.28125 -2.660156 2.28125 -2.960938 L 2.28125 -5.289062 C 2.28125 -5.589844 2.300781 -5.839844 2.328125 -6.027344 C 2.371094 -6.21875 2.417969 -6.359375 2.5 -6.46875 C 2.578125 -6.578125 2.667969 -6.648438 2.800781 -6.6875 C 2.929688 -6.738281 3.109375 -6.757812 3.320312 -6.757812 L 6.910156 -6.757812 C 6.988281 -6.757812 7.1875 -6.796875 7.1875 -7.117188 L 7.1875 -7.886719 C 7.1875 -8.199219 6.988281 -8.238281 6.910156 -8.238281 Z M 6.910156 -8.238281 "/></g></g></g><g fill="#2e479f" fill-opacity="1"><g transform="translate(258.743598, 205.336935)"><g><path d="M 7.257812 -8.238281 L 6.339844 -8.238281 C 6.257812 -8.238281 6.070312 -8.199219 6.070312 -7.886719 L 6.070312 -4.898438 L 2.28125 -4.898438 L 2.28125 -7.886719 C 2.28125 -8.199219 2.089844 -8.238281 2 -8.238281 L 1.089844 -8.238281 C 1 -8.238281 0.800781 -8.199219 0.800781 -7.886719 L 0.800781 -0.339844 C 0.800781 -0.03125 1 0.0117188 1.089844 0.0117188 L 2 0.0117188 C 2.089844 0.0117188 2.28125 -0.03125 2.28125 -0.339844 L 2.28125 -3.417969 L 6.070312 -3.417969 L 6.070312 -0.339844 C 6.070312 -0.03125 6.257812 0.0117188 6.339844 0.0117188 L 7.257812 0.0117188 C 7.347656 0.0117188 7.546875 -0.03125 7.546875 -0.339844 L 7.546875 -7.886719 C 7.546875 -8.199219 7.347656 -8.238281 7.257812 -8.238281 Z M 7.257812 -8.238281 "/></g></g></g><g fill="#2e479f" fill-opacity="1"><g transform="translate(267.590109, 205.336935)"><g><path d="M 6.808594 -1.789062 L 3.289062 -1.789062 C 3.078125 -1.789062 2.910156 -1.820312 2.769531 -1.859375 C 2.640625 -1.910156 2.550781 -1.980469 2.46875 -2.078125 C 2.390625 -2.1875 2.328125 -2.339844 2.300781 -2.53125 C 2.289062 -2.578125 2.289062 -2.648438 2.28125 -2.699219 C 2.28125 -2.699219 2.289062 -3.417969 2.300781 -3.417969 L 6.769531 -3.417969 C 6.847656 -3.417969 7.046875 -3.460938 7.046875 -3.769531 L 7.046875 -4.558594 C 7.046875 -4.867188 6.847656 -4.898438 6.769531 -4.898438 L 1.609375 -4.890625 C 1.320312 -4.867188 1.070312 -4.71875 0.929688 -4.46875 C 0.878906 -4.390625 0.839844 -4.308594 0.820312 -4.21875 L 0.800781 -2.960938 L 0.800781 -2.910156 C 0.808594 -2.4375 0.859375 -2.039062 0.929688 -1.710938 C 1.019531 -1.308594 1.167969 -0.980469 1.359375 -0.730469 C 1.558594 -0.46875 1.820312 -0.289062 2.140625 -0.179688 C 2.449219 -0.0585938 2.820312 -0.0117188 3.257812 -0.0117188 L 6.808594 -0.0117188 C 6.898438 -0.0117188 7.097656 -0.0390625 7.097656 -0.351562 L 7.097656 -1.449219 C 7.097656 -1.757812 6.898438 -1.789062 6.808594 -1.789062 Z M 6.816406 -8.257812 L 1.070312 -8.257812 C 0.988281 -8.257812 0.800781 -8.21875 0.800781 -7.898438 L 0.800781 -7.117188 C 0.800781 -6.808594 0.988281 -6.777344 1.070312 -6.777344 L 6.816406 -6.769531 C 6.898438 -6.769531 7.097656 -6.808594 7.097656 -7.117188 L 7.097656 -7.90625 C 7.097656 -8.21875 6.898438 -8.257812 6.816406 -8.257812 Z M 6.816406 -8.257812 "/></g></g></g><g fill="#2e479f" fill-opacity="1"><g transform="translate(275.986799, 205.336935)"><g><path d="M 5.628906 -4.917969 L 2.628906 -4.917969 C 2.480469 -4.917969 2.289062 -4.980469 2.289062 -5.46875 L 2.289062 -6.207031 C 2.289062 -6.386719 2.320312 -6.527344 2.371094 -6.628906 C 2.410156 -6.6875 2.46875 -6.757812 2.640625 -6.757812 L 6.707031 -6.757812 C 6.789062 -6.757812 6.988281 -6.789062 6.988281 -7.097656 L 6.988281 -7.898438 C 6.988281 -8.207031 6.789062 -8.238281 6.707031 -8.238281 L 2.398438 -8.238281 C 1.847656 -8.238281 1.449219 -8.058594 1.191406 -7.6875 C 0.929688 -7.328125 0.800781 -6.847656 0.800781 -6.269531 L 0.800781 -5.507812 C 0.800781 -4.820312 0.941406 -4.257812 1.191406 -3.910156 C 1.5 -3.5 1.960938 -3.4375 2.378906 -3.4375 L 5.378906 -3.4375 C 5.527344 -3.4375 5.730469 -3.378906 5.730469 -2.890625 L 5.730469 -2.03125 C 5.730469 -1.847656 5.699219 -1.710938 5.636719 -1.609375 C 5.597656 -1.550781 5.539062 -1.480469 5.367188 -1.480469 L 1.101562 -1.480469 C 1.007812 -1.480469 0.808594 -1.449219 0.808594 -1.140625 L 0.808594 -0.339844 C 0.808594 -0.03125 1.007812 0 1.101562 0 L 5.609375 0 C 6.160156 0 6.566406 -0.191406 6.828125 -0.558594 C 7.078125 -0.917969 7.207031 -1.390625 7.207031 -1.96875 L 7.207031 -2.847656 C 7.207031 -3.5 7.078125 -4.007812 6.816406 -4.367188 C 6.546875 -4.730469 6.148438 -4.917969 5.628906 -4.917969 Z M 5.628906 -4.917969 "/></g></g></g><g fill="#2e479f" fill-opacity="1"><g transform="translate(284.493444, 205.336935)"><g><path d="M 7.707031 -8.238281 L 1.089844 -8.238281 C 1 -8.238281 0.800781 -8.207031 0.800781 -7.898438 L 0.800781 -7.117188 C 0.800781 -6.789062 1 -6.757812 1.089844 -6.757812 L 3.660156 -6.757812 L 3.660156 -0.339844 C 3.660156 -0.03125 3.859375 0 3.9375 0 L 4.859375 0 C 4.949219 0 5.140625 -0.03125 5.140625 -0.339844 L 5.140625 -6.757812 L 7.707031 -6.757812 C 7.796875 -6.757812 7.996094 -6.789062 7.996094 -7.117188 L 7.996094 -7.898438 C 7.996094 -8.207031 7.796875 -8.238281 7.707031 -8.238281 Z M 7.707031 -8.238281 "/></g></g></g><g fill="#2e479f" fill-opacity="1"><g transform="translate(293.789776, 205.336935)"><g><path d="M 7.617188 -5.847656 C 7.617188 -5.839844 7.617188 -5.828125 7.617188 -5.820312 C 7.617188 -5.808594 7.617188 -5.796875 7.617188 -5.789062 Z M 7.808594 -0.429688 L 6.058594 -3.429688 C 6.546875 -3.488281 6.929688 -3.699219 7.179688 -4.039062 C 7.457031 -4.449219 7.609375 -5.039062 7.617188 -5.820312 C 7.609375 -6.597656 7.457031 -7.1875 7.179688 -7.597656 C 6.878906 -8.027344 6.378906 -8.238281 5.699219 -8.238281 L 1.089844 -8.238281 C 1 -8.238281 0.800781 -8.207031 0.800781 -7.886719 L 0.800781 -7.097656 C 0.800781 -6.789062 1 -6.757812 1.089844 -6.757812 L 5.4375 -6.757812 C 5.699219 -6.757812 5.867188 -6.6875 5.96875 -6.539062 C 6.078125 -6.386719 6.128906 -6.148438 6.128906 -5.820312 C 6.128906 -5.488281 6.078125 -5.25 5.96875 -5.097656 C 5.867188 -4.949219 5.699219 -4.878906 5.4375 -4.878906 L 1.089844 -4.878906 C 1 -4.878906 0.800781 -4.847656 0.800781 -4.539062 L 0.800781 -0.339844 C 0.800781 -0.03125 1 0.0117188 1.089844 0.0117188 L 2 0.0117188 C 2.089844 0.0117188 2.28125 -0.03125 2.28125 -0.339844 L 2.28125 -3.398438 L 4.390625 -3.398438 L 6.199219 -0.191406 C 6.238281 -0.128906 6.269531 -0.078125 6.308594 -0.0507812 C 6.359375 -0.0117188 6.429688 0.0117188 6.519531 0.0117188 L 7.617188 0.0117188 C 7.738281 0.0117188 7.828125 -0.0703125 7.847656 -0.191406 C 7.859375 -0.289062 7.847656 -0.371094 7.808594 -0.429688 Z M 7.808594 -0.429688 "/></g></g></g><g fill="#2e479f" fill-opacity="1"><g transform="translate(302.946159, 205.336935)"><g><path d="M 6.160156 -7.308594 C 6.136719 -7.359375 6.117188 -7.417969 6.097656 -7.457031 C 5.9375 -7.976562 5.457031 -8.347656 4.910156 -8.347656 C 4.660156 -8.347656 4.417969 -8.277344 4.21875 -8.136719 C 4.160156 -8.109375 4.109375 -8.066406 4.070312 -8.039062 C 3.917969 -7.90625 3.769531 -7.667969 3.628906 -7.308594 L 0.839844 -0.378906 C 0.808594 -0.289062 0.800781 -0.199219 0.820312 -0.140625 C 0.828125 -0.078125 0.878906 0.0117188 1.039062 0.0117188 L 2.140625 0.0117188 C 2.269531 0.0117188 2.371094 -0.0703125 2.417969 -0.199219 L 2.988281 -1.628906 L 5.179688 -1.628906 C 5.289062 -1.628906 5.386719 -1.679688 5.4375 -1.769531 C 5.5 -1.847656 5.507812 -1.960938 5.480469 -2.058594 L 5.117188 -2.949219 C 5.070312 -3.070312 4.957031 -3.148438 4.828125 -3.148438 L 3.589844 -3.148438 L 4.867188 -6.386719 C 4.878906 -6.410156 4.890625 -6.417969 4.890625 -6.417969 L 4.929688 -6.417969 C 4.929688 -6.417969 4.929688 -6.417969 4.9375 -6.398438 L 7.417969 -0.210938 C 7.46875 -0.0703125 7.566406 0.0117188 7.707031 0.0117188 L 8.777344 0.0117188 C 8.9375 0.0117188 8.976562 -0.0898438 8.996094 -0.140625 C 9.019531 -0.199219 9.007812 -0.289062 8.96875 -0.378906 Z M 6.160156 -7.308594 "/></g></g></g><g fill="#2e479f" fill-opacity="1"><g transform="translate(313.262092, 205.336935)"><g><path d="M 7.707031 -8.238281 L 1.089844 -8.238281 C 1 -8.238281 0.800781 -8.207031 0.800781 -7.898438 L 0.800781 -7.117188 C 0.800781 -6.789062 1 -6.757812 1.089844 -6.757812 L 3.660156 -6.757812 L 3.660156 -0.339844 C 3.660156 -0.03125 3.859375 0 3.9375 0 L 4.859375 0 C 4.949219 0 5.140625 -0.03125 5.140625 -0.339844 L 5.140625 -6.757812 L 7.707031 -6.757812 C 7.796875 -6.757812 7.996094 -6.789062 7.996094 -7.117188 L 7.996094 -7.898438 C 7.996094 -8.207031 7.796875 -8.238281 7.707031 -8.238281 Z M 7.707031 -8.238281 "/></g></g></g><g fill="#2e479f" fill-opacity="1"><g transform="translate(322.558424, 205.336935)"><g><path d="M 2 -8.238281 L 1.078125 -8.238281 C 1 -8.238281 0.800781 -8.199219 0.800781 -7.886719 L 0.800781 -0.339844 C 0.800781 -0.03125 1 0.0117188 1.078125 0.0117188 L 2 0.0117188 C 2.078125 0.0117188 2.28125 -0.03125 2.28125 -0.339844 L 2.28125 -7.886719 C 2.28125 -8.199219 2.078125 -8.238281 2 -8.238281 Z M 2 -8.238281 "/></g></g></g><g fill="#2e479f" fill-opacity="1"><g transform="translate(326.137015, 205.336935)"><g><path d="M 7.609375 -7.507812 C 7.40625 -7.757812 7.148438 -7.949219 6.828125 -8.066406 C 6.519531 -8.179688 6.136719 -8.238281 5.699219 -8.238281 L 3.257812 -8.238281 C 2.820312 -8.238281 2.449219 -8.179688 2.140625 -8.066406 C 1.820312 -7.949219 1.558594 -7.757812 1.359375 -7.507812 C 1.167969 -7.257812 1.019531 -6.929688 0.929688 -6.527344 C 0.839844 -6.136719 0.800781 -5.667969 0.800781 -5.109375 L 0.800781 -3.128906 C 0.800781 -2.570312 0.839844 -2.089844 0.929688 -1.699219 C 1.019531 -1.300781 1.167969 -0.96875 1.359375 -0.71875 C 1.558594 -0.460938 1.820312 -0.269531 2.140625 -0.160156 C 2.4375 -0.0507812 2.820312 0.0117188 3.257812 0.0117188 L 5.699219 0.0117188 C 6.136719 0.0117188 6.519531 -0.0507812 6.828125 -0.160156 C 7.148438 -0.269531 7.40625 -0.460938 7.609375 -0.710938 C 7.808594 -0.96875 7.949219 -1.300781 8.039062 -1.699219 C 8.117188 -2.089844 8.167969 -2.570312 8.167969 -3.128906 L 8.167969 -5.109375 C 8.167969 -5.660156 8.117188 -6.136719 8.039062 -6.527344 C 7.949219 -6.929688 7.808594 -7.257812 7.609375 -7.507812 Z M 6.679688 -5.277344 L 6.679688 -2.949219 C 6.679688 -2.660156 6.667969 -2.410156 6.628906 -2.210938 C 6.597656 -2.03125 6.539062 -1.871094 6.457031 -1.769531 C 6.386719 -1.660156 6.289062 -1.589844 6.160156 -1.550781 C 6.027344 -1.5 5.859375 -1.480469 5.648438 -1.480469 L 3.308594 -1.480469 C 3.097656 -1.480469 2.929688 -1.5 2.800781 -1.550781 C 2.667969 -1.589844 2.570312 -1.660156 2.5 -1.769531 C 2.417969 -1.871094 2.371094 -2.03125 2.328125 -2.210938 C 2.300781 -2.410156 2.28125 -2.660156 2.28125 -2.949219 L 2.28125 -5.277344 C 2.28125 -5.570312 2.300781 -5.820312 2.328125 -6.019531 C 2.371094 -6.207031 2.417969 -6.359375 2.5 -6.46875 C 2.570312 -6.566406 2.667969 -6.636719 2.800781 -6.6875 C 2.929688 -6.726562 3.097656 -6.757812 3.308594 -6.757812 L 5.648438 -6.757812 C 5.859375 -6.757812 6.027344 -6.726562 6.160156 -6.6875 C 6.289062 -6.636719 6.386719 -6.566406 6.457031 -6.46875 C 6.539062 -6.359375 6.597656 -6.207031 6.628906 -6.019531 C 6.667969 -5.820312 6.679688 -5.570312 6.679688 -5.277344 Z M 6.679688 -5.277344 "/></g></g></g><g fill="#2e479f" fill-opacity="1"><g transform="translate(335.603281, 205.336935)"><g><path d="M 7.878906 -8.238281 L 6.988281 -8.238281 C 6.898438 -8.238281 6.707031 -8.207031 6.707031 -7.886719 L 6.707031 -1.878906 C 6.707031 -1.871094 6.707031 -1.871094 6.707031 -1.859375 L 6.660156 -1.859375 C 6.648438 -1.859375 6.636719 -1.859375 6.628906 -1.890625 L 3.46875 -7.507812 C 3.390625 -7.65625 3.320312 -7.777344 3.25 -7.867188 C 3.179688 -7.96875 3.109375 -8.046875 3.039062 -8.097656 C 2.960938 -8.15625 2.871094 -8.199219 2.757812 -8.21875 C 2.660156 -8.226562 2.539062 -8.238281 2.410156 -8.238281 L 1.660156 -8.238281 C 1.371094 -8.238281 1.148438 -8.136719 1.007812 -7.957031 C 0.871094 -7.769531 0.800781 -7.4375 0.800781 -6.949219 L 0.800781 -0.339844 C 0.800781 -0.03125 1 0.0117188 1.089844 0.0117188 L 1.980469 0.0117188 C 2.070312 0.0117188 2.257812 -0.03125 2.257812 -0.339844 L 2.257812 -6.347656 C 2.257812 -6.359375 2.257812 -6.367188 2.257812 -6.367188 L 2.308594 -6.367188 C 2.308594 -6.367188 2.320312 -6.367188 2.339844 -6.339844 L 5.507812 -0.71875 C 5.589844 -0.558594 5.667969 -0.441406 5.738281 -0.351562 C 5.808594 -0.25 5.878906 -0.179688 5.957031 -0.128906 C 6.039062 -0.0703125 6.128906 -0.0390625 6.226562 -0.0195312 C 6.320312 0 6.429688 0.0117188 6.566406 0.0117188 L 7.296875 0.0117188 C 7.589844 0.0117188 7.808594 -0.0898438 7.949219 -0.28125 C 8.089844 -0.460938 8.15625 -0.789062 8.15625 -1.28125 L 8.15625 -7.886719 C 8.15625 -8.207031 7.957031 -8.238281 7.878906 -8.238281 Z M 7.878906 -8.238281 "/></g></g></g></svg>