<svg xmlns="http://www.w3.org/2000/svg" xmlns:xlink="http://www.w3.org/1999/xlink" width="500" zoomAndPan="magnify" viewBox="0 0 375 374.999991" height="500" preserveAspectRatio="xMidYMid meet" version="1.0"><defs><g/><clipPath id="0b79dce2d0"><path d="M 151 120 L 224 120 L 224 204 L 151 204 Z M 151 120 " clip-rule="nonzero"/></clipPath><clipPath id="971b45bece"><path d="M 176.402344 105.644531 L 244.417969 153.648438 L 198.582031 218.601562 L 130.5625 170.601562 Z M 176.402344 105.644531 " clip-rule="nonzero"/></clipPath><clipPath id="aecb7b364c"><path d="M 176.402344 105.644531 L 244.417969 153.648438 L 198.582031 218.601562 L 130.5625 170.601562 Z M 176.402344 105.644531 " clip-rule="nonzero"/></clipPath><clipPath id="7e0a1bf9a1"><path d="M 176.402344 105.644531 L 244.417969 153.648438 L 198.582031 218.601562 L 130.5625 170.601562 Z M 176.402344 105.644531 " clip-rule="nonzero"/></clipPath><clipPath id="f0a7162b43"><path d="M 176.421875 105.660156 L 244.398438 153.632812 L 198.527344 218.636719 L 130.550781 170.664062 Z M 176.421875 105.660156 " clip-rule="nonzero"/></clipPath><clipPath id="b41cf170ee"><path d="M 176.421875 105.660156 L 244.398438 153.632812 L 198.5625 218.585938 L 130.585938 170.613281 Z M 176.421875 105.660156 " clip-rule="nonzero"/></clipPath><clipPath id="4188bab9e5"><path d="M 154 120 L 224 120 L 224 204 L 154 204 Z M 154 120 " clip-rule="nonzero"/></clipPath><clipPath id="cb34efa990"><path d="M 176.402344 105.644531 L 244.417969 153.648438 L 198.582031 218.601562 L 130.5625 170.601562 Z M 176.402344 105.644531 " clip-rule="nonzero"/></clipPath><clipPath id="f1c68ada32"><path d="M 176.402344 105.644531 L 244.417969 153.648438 L 198.582031 218.601562 L 130.5625 170.601562 Z M 176.402344 105.644531 " clip-rule="nonzero"/></clipPath><clipPath id="98009e5360"><path d="M 176.402344 105.644531 L 244.417969 153.648438 L 198.582031 218.601562 L 130.5625 170.601562 Z M 176.402344 105.644531 " clip-rule="nonzero"/></clipPath><clipPath id="11d92c610c"><path d="M 176.421875 105.660156 L 244.398438 153.632812 L 198.527344 218.636719 L 130.550781 170.664062 Z M 176.421875 105.660156 " clip-rule="nonzero"/></clipPath><clipPath id="67b8f0b79f"><path d="M 176.421875 105.660156 L 244.398438 153.632812 L 198.5625 218.585938 L 130.585938 170.613281 Z M 176.421875 105.660156 " clip-rule="nonzero"/></clipPath></defs><g clip-path="url(#0b79dce2d0)"><g clip-path="url(#971b45bece)"><g clip-path="url(#aecb7b364c)"><g clip-path="url(#7e0a1bf9a1)"><g clip-path="url(#f0a7162b43)"><g clip-path="url(#b41cf170ee)"><path fill="#187cb1" d="M 162.8125 181.21875 L 163.691406 146.695312 L 152.859375 139.050781 L 151.679688 185.5 L 162.511719 193.144531 Z M 208.347656 128.199219 L 197.214844 132.476562 L 197.101562 137.03125 L 208.234375 132.75 Z M 197.519531 120.554688 Z M 223.300781 138.765625 L 212.167969 143.046875 L 211.292969 177.554688 L 222.125 185.199219 Z M 212.488281 131.117188 L 212.46875 131.105469 L 212.46875 131.121094 Z M 207.933594 144.675781 L 196.800781 148.957031 L 196.339844 167 L 207.171875 174.644531 Z M 177.566406 203.570312 L 177.867188 191.734375 L 177.980469 187.234375 L 166.933594 191.480469 L 166.816406 195.984375 L 166.816406 196 L 177.566406 203.585938 Z M 178.28125 175.398438 L 167.230469 179.644531 L 167.984375 149.902344 L 178.734375 157.488281 L 178.28125 175.398438 " fill-opacity="1" fill-rule="nonzero"/></g></g></g></g></g></g><g clip-path="url(#4188bab9e5)"><g clip-path="url(#cb34efa990)"><g clip-path="url(#f1c68ada32)"><g clip-path="url(#98009e5360)"><g clip-path="url(#11d92c610c)"><g clip-path="url(#67b8f0b79f)"><path fill="#51ade5" d="M 195.054688 168.824219 L 178.203125 175.300781 L 167.070312 179.582031 L 162.8125 181.21875 L 162.511719 193.144531 L 166.769531 191.507812 L 177.902344 187.226562 L 205.886719 176.46875 Z M 208.351562 128.195312 L 197.519531 120.554688 L 154.144531 137.230469 L 164.976562 144.875 Z M 223.320312 138.757812 L 212.492188 131.113281 L 169.113281 147.792969 L 179.945312 155.4375 Z M 220.839844 187.019531 L 177.464844 203.695312 L 166.632812 196.050781 L 166.816406 195.980469 L 166.816406 196 L 177.566406 203.585938 L 177.566406 203.570312 L 177.867188 191.734375 L 177.867188 191.730469 L 210.007812 179.375 L 220.839844 187.019531 " fill-opacity="1" fill-rule="nonzero"/></g></g></g></g></g></g><g fill="#333333" fill-opacity="1"><g transform="translate(144.619412, 244.651844)"><g><path d="M 2.136719 0 L 10.707031 0 C 17.230469 0 21.558594 -4.011719 21.558594 -10.101562 C 21.558594 -16.160156 17.230469 -20.203125 10.707031 -20.203125 L 2.136719 -20.203125 Z M 7.964844 -5.222656 L 7.964844 -14.976562 L 10.535156 -14.976562 C 13.621094 -14.976562 15.613281 -13.074219 15.613281 -10.101562 C 15.613281 -7.128906 13.621094 -5.222656 10.535156 -5.222656 Z M 7.964844 -5.222656 "/></g></g></g><g fill="#333333" fill-opacity="1"><g transform="translate(167.15253, 244.651844)"><g><path d="M 0.144531 0 L 6.320312 0 L 7.417969 -2.855469 L 14.316406 -2.855469 L 15.410156 0 L 21.617188 0 L 13.765625 -20.203125 L 7.996094 -20.203125 Z M 8.628906 -7.128906 L 10.878906 -13.390625 L 13.132812 -7.128906 Z M 8.628906 -7.128906 "/></g></g></g><g fill="#333333" fill-opacity="1"><g transform="translate(188.90666, 244.651844)"><g><path d="M 6.957031 0 L 12.757812 0 L 12.757812 -14.804688 L 18.902344 -14.804688 L 18.902344 -20.203125 L 0.808594 -20.203125 L 0.808594 -14.804688 L 6.957031 -14.804688 Z M 6.957031 0 "/></g></g></g><g fill="#333333" fill-opacity="1"><g transform="translate(208.61232, 244.651844)"><g><path d="M 0.144531 0 L 6.320312 0 L 7.417969 -2.855469 L 14.316406 -2.855469 L 15.410156 0 L 21.617188 0 L 13.765625 -20.203125 L 7.996094 -20.203125 Z M 8.628906 -7.128906 L 10.878906 -13.390625 L 13.132812 -7.128906 Z M 8.628906 -7.128906 "/></g></g></g><g fill="#333333" fill-opacity="1"><g transform="translate(144.497148, 254.890368)"><g><path d="M 4.378906 0.148438 C 6.847656 0.148438 8.4375 -1.675781 8.265625 -4.238281 L 4.046875 -4.238281 L 4.046875 -2.925781 L 6.472656 -2.925781 C 6.257812 -2.019531 5.488281 -1.410156 4.398438 -1.410156 C 3.03125 -1.410156 2.15625 -2.390625 2.15625 -3.738281 C 2.15625 -5.105469 3.066406 -6.066406 4.378906 -6.066406 C 5.210938 -6.066406 5.90625 -5.683594 6.269531 -5.03125 L 8.09375 -5.03125 C 7.648438 -6.601562 6.164062 -7.625 4.347656 -7.625 C 2.070312 -7.625 0.460938 -6.011719 0.460938 -3.738281 C 0.460938 -1.453125 2.082031 0.148438 4.378906 0.148438 Z M 4.378906 0.148438 "/></g></g></g><g fill="#333333" fill-opacity="1"><g transform="translate(154.042141, 254.890368)"><g><path d="M 4.441406 0.148438 C 6.78125 0.148438 8.4375 -1.453125 8.4375 -3.738281 C 8.4375 -6.023438 6.78125 -7.625 4.441406 -7.625 C 2.105469 -7.625 0.460938 -6.023438 0.460938 -3.738281 C 0.460938 -1.453125 2.105469 0.148438 4.441406 0.148438 Z M 2.1875 -3.738281 C 2.1875 -5.082031 3.117188 -6.011719 4.441406 -6.011719 C 5.777344 -6.011719 6.695312 -5.082031 6.695312 -3.738281 C 6.695312 -2.390625 5.777344 -1.464844 4.441406 -1.464844 C 3.117188 -1.464844 2.1875 -2.390625 2.1875 -3.738281 Z M 2.1875 -3.738281 "/></g></g></g><g fill="#333333" fill-opacity="1"><g transform="translate(163.768626, 254.890368)"><g><path d="M 2.96875 0 L 4.636719 0 L 7.507812 -7.476562 L 5.691406 -7.476562 L 3.8125 -2.445312 L 2.914062 -4.816406 L 1.921875 -7.476562 L 0.0976562 -7.476562 Z M 2.96875 0 "/></g></g></g><g fill="#333333" fill-opacity="1"><g transform="translate(172.203347, 254.890368)"><g><path d="M 0.898438 0 L 5.925781 0 L 5.925781 -1.441406 L 2.585938 -1.441406 L 2.585938 -3.074219 L 5.523438 -3.074219 L 5.523438 -4.496094 L 2.585938 -4.496094 L 2.585938 -6.042969 L 5.808594 -6.042969 L 5.808594 -7.476562 L 0.898438 -7.476562 Z M 0.898438 0 "/></g></g></g><g fill="#333333" fill-opacity="1"><g transform="translate(179.506442, 254.890368)"><g><path d="M 0.898438 0 L 2.59375 0 L 2.59375 -2.328125 L 3.714844 -2.328125 L 5.050781 0 L 7.015625 0 L 5.46875 -2.59375 C 6.367188 -2.992188 6.886719 -3.800781 6.886719 -4.902344 C 6.886719 -6.492188 5.800781 -7.476562 4.089844 -7.476562 L 0.898438 -7.476562 Z M 2.574219 -3.757812 L 2.574219 -6.023438 L 3.867188 -6.023438 C 4.699219 -6.023438 5.167969 -5.617188 5.167969 -4.890625 C 5.167969 -4.164062 4.699219 -3.757812 3.867188 -3.757812 Z M 2.574219 -3.757812 "/></g></g></g><g fill="#333333" fill-opacity="1"><g transform="translate(187.855757, 254.890368)"><g><path d="M 0.898438 0 L 2.585938 0 L 2.585938 -4.582031 L 5.882812 0 L 7.328125 0 L 7.328125 -7.476562 L 5.640625 -7.476562 L 5.640625 -2.925781 L 2.339844 -7.476562 L 0.898438 -7.476562 Z M 0.898438 0 "/></g></g></g><g fill="#333333" fill-opacity="1"><g transform="translate(196.909672, 254.890368)"><g><path d="M 0.0976562 0 L 1.910156 0 L 2.414062 -1.292969 L 5.382812 -1.292969 L 5.882812 0 L 7.699219 0 L 4.730469 -7.476562 L 3.066406 -7.476562 Z M 2.851562 -2.628906 L 3.898438 -5.363281 L 4.957031 -2.628906 Z M 2.851562 -2.628906 "/></g></g></g><g fill="#333333" fill-opacity="1"><g transform="translate(205.536554, 254.890368)"><g><path d="M 0.898438 0 L 2.585938 0 L 2.585938 -4.582031 L 5.882812 0 L 7.328125 0 L 7.328125 -7.476562 L 5.640625 -7.476562 L 5.640625 -2.925781 L 2.339844 -7.476562 L 0.898438 -7.476562 Z M 0.898438 0 "/></g></g></g><g fill="#333333" fill-opacity="1"><g transform="translate(214.590467, 254.890368)"><g><path d="M 4.324219 0.148438 C 6.289062 0.148438 7.816406 -1.046875 8.191406 -2.863281 L 6.441406 -2.863281 C 6.128906 -2.007812 5.339844 -1.464844 4.359375 -1.464844 C 3.085938 -1.464844 2.1875 -2.390625 2.1875 -3.738281 C 2.1875 -5.082031 3.097656 -6.011719 4.367188 -6.011719 C 5.320312 -6.011719 6.097656 -5.5 6.386719 -4.679688 L 8.136719 -4.679688 C 7.710938 -6.472656 6.214844 -7.625 4.316406 -7.625 C 2.050781 -7.625 0.460938 -6.023438 0.460938 -3.738281 C 0.460938 -1.453125 2.050781 0.148438 4.324219 0.148438 Z M 4.324219 0.148438 "/></g></g></g><g fill="#333333" fill-opacity="1"><g transform="translate(224.039383, 254.890368)"><g><path d="M 0.898438 0 L 5.925781 0 L 5.925781 -1.441406 L 2.585938 -1.441406 L 2.585938 -3.074219 L 5.523438 -3.074219 L 5.523438 -4.496094 L 2.585938 -4.496094 L 2.585938 -6.042969 L 5.808594 -6.042969 L 5.808594 -7.476562 L 0.898438 -7.476562 Z M 0.898438 0 "/></g></g></g></svg>